<svg xmlns="http://www.w3.org/2000/svg" xmlns:xlink="http://www.w3.org/1999/xlink" width="621" zoomAndPan="magnify" viewBox="0 0 465.75 377.999986" height="504" preserveAspectRatio="xMidYMid meet" version="1.0"><defs><g/><clipPath id="cfa02a6eb5"><path d="M 0 0.101562 L 465.5 0.101562 L 465.5 377.898438 L 0 377.898438 Z M 0 0.101562 " clip-rule="nonzero"/></clipPath><clipPath id="444f2cdd7f"><path d="M 68 61.402344 L 391.949219 61.402344 L 391.949219 338.753906 L 68 338.753906 Z M 68 61.402344 " clip-rule="nonzero"/></clipPath></defs><g clip-path="url(#cfa02a6eb5)"><path fill="#ffffff" d="M 0 0.101562 L 465.5 0.101562 L 465.5 377.898438 L 0 377.898438 Z M 0 0.101562 " fill-opacity="1" fill-rule="nonzero"/></g><g clip-path="url(#444f2cdd7f)"><path fill="#90e0ef" d="M 315.363281 61.984375 C 314.480469 62.003906 313.609375 62.039062 312.722656 62.105469 L 116.34375 76.488281 C 87.917969 78.570312 66.640625 103.246094 68.722656 131.667969 L 76.847656 242.800781 C 78.269531 262.210938 90.21875 278.289062 106.714844 285.871094 L 120.773438 293.347656 C 124.949219 295.929688 129.542969 297.855469 134.425781 299.074219 L 136.457031 327.195312 L 148.730469 338.328125 C 148.730469 338.328125 185.015625 310.589844 200.578125 298.710938 L 344.617188 293.753906 C 371.359375 292.832031 392.1875 270.554688 391.265625 243.816406 L 387.40625 132.441406 C 386.992188 120.480469 382.335938 109.730469 374.890625 101.558594 L 374.726562 101.398438 C 373.355469 99.90625 362.710938 87.769531 356.484375 81 L 356.363281 80.875 C 346.621094 68.984375 331.730469 61.613281 315.363281 61.984375 Z M 315.523438 68.445312 C 339.460938 67.894531 359.671875 86.050781 361.4375 110.214844 L 369.566406 221.386719 C 371.390625 246.328125 352.863281 267.75 327.917969 269.574219 L 184.160156 280.097656 L 183.144531 280.179688 L 182.332031 280.832031 L 142.023438 314.148438 L 139.789062 283.351562 L 131.542969 283.960938 C 106.59375 285.785156 85.175781 267.296875 83.351562 242.351562 L 75.226562 131.179688 C 73.398438 106.234375 91.890625 84.773438 116.832031 82.949219 L 313.210938 68.566406 C 313.988281 68.507812 314.753906 68.460938 315.527344 68.441406 Z M 315.523438 68.445312 " fill-opacity="1" fill-rule="nonzero"/></g><g fill="#48cae4" fill-opacity="0.302"><g transform="translate(146.360931, 252.081671)"><g><path d="M 51.5 15.34375 L 32.671875 -1.359375 L 28.140625 -76.984375 L 14.109375 -76.140625 L -4.71875 -92.828125 L -6.34375 -119.984375 L 86.109375 -125.53125 L 104.9375 -108.828125 L 106.5625 -81.6875 L 75.609375 -79.828125 L 81.203125 13.5625 Z M 35.609375 -3.671875 L 59.28125 -5.09375 L 53.6875 -98.46875 L 85.484375 -100.375 L 84.15625 -122.375 L -3.125 -117.140625 L -1.796875 -95.140625 L 30.015625 -97.046875 Z M 103.34375 -84.546875 L 101.96875 -107.46875 L 87.359375 -120.453125 L 88.734375 -97.515625 Z M 2.640625 -90.40625 L 4.9375 -90.546875 L 4.828125 -92.484375 L 2.53125 -92.34375 Z M 8.96875 -90.953125 L 10.921875 -91.078125 L 10.828125 -92.84375 L 8.875 -92.71875 Z M 15.234375 -91.5 L 16.921875 -91.609375 L 16.828125 -93.203125 L 15.140625 -93.09375 Z M 57.109375 -92.46875 L 58.296875 -92.546875 L 58.171875 -94.5 L 56.921875 -95.59375 Z M 72.5625 -95.015625 L 74.265625 -95.125 L 74.1875 -96.640625 L 72.484375 -96.53125 Z M 78.578125 -95.203125 L 80.53125 -95.328125 L 80.4375 -97.015625 L 78.484375 -96.890625 Z M 84.625 -95.40625 L 86.890625 -95.546875 L 86.78125 -97.390625 L 84.515625 -97.25 Z M 21.5625 -92.0625 L 22.921875 -92.140625 L 22.84375 -93.46875 L 21.484375 -93.390625 Z M 66.5625 -94.75 L 67.921875 -94.828125 L 67.84375 -96.15625 L 66.484375 -96.078125 Z M 60.453125 -94.546875 L 61.546875 -94.609375 L 61.484375 -95.625 L 60.390625 -95.5625 Z M 5.875 -87.53125 L 8.15625 -87.671875 L 8.015625 -89.953125 L 5.734375 -89.8125 Z M 87.921875 -92.453125 L 90.21875 -92.59375 L 90.078125 -94.875 L 87.78125 -94.734375 Z M 81.828125 -92.265625 L 83.859375 -92.390625 L 83.734375 -94.421875 L 81.703125 -94.296875 Z M 12.203125 -88 L 14.234375 -88.125 L 14.125 -90.15625 L 12.09375 -90.03125 Z M 75.8125 -92.078125 L 77.484375 -92.171875 L 77.390625 -93.859375 L 75.71875 -93.765625 Z M 18.546875 -88.546875 L 20.234375 -88.65625 L 20.125 -90.359375 L 18.4375 -90.25 Z M 69.796875 -91.875 L 71.140625 -91.953125 L 71.0625 -93.3125 L 69.71875 -93.234375 Z M 24.890625 -89.109375 L 26.234375 -89.1875 L 26.15625 -90.546875 L 24.8125 -90.46875 Z M 77.984375 10.765625 L 74.5625 -46.328125 L 74.296875 -46.3125 L 74.25 -47.078125 L 74.515625 -47.09375 L 74.21875 -52.09375 L 73.796875 -52.0625 L 73.71875 -53.3125 L 74.140625 -53.34375 L 73.875 -57.921875 L 73.28125 -57.875 L 73.171875 -59.5625 L 73.765625 -59.609375 L 73.515625 -63.75 L 72.65625 -63.6875 L 72.53125 -65.71875 L 73.390625 -65.78125 L 73.171875 -69.59375 L 72.15625 -69.53125 L 72 -71.96875 L 73.015625 -72.03125 L 72.828125 -75.34375 L 71.546875 -75.265625 L 71.359375 -78.21875 L 72.640625 -78.296875 L 72.46875 -81.171875 L 71.109375 -81.078125 L 71.28125 -78.28125 L 68.421875 -78.109375 L 68.25 -81 L 71.03125 -81.171875 L 70.90625 -83.203125 L 69.921875 -84.078125 L 67.984375 -83.953125 L 68.140625 -81.15625 L 65.171875 -80.984375 L 65 -83.875 L 67.796875 -84.03125 L 67.671875 -86.0625 L 66.703125 -86.9375 L 64.75 -86.8125 L 64.921875 -83.9375 L 61.953125 -83.765625 L 61.78125 -86.71875 L 64.65625 -86.890625 L 64.53125 -88.84375 L 63.5625 -89.71875 L 61.53125 -89.59375 L 61.6875 -86.8125 L 58.8125 -86.640625 L 58.640625 -89.515625 L 61.421875 -89.671875 L 61.296875 -91.703125 L 60.328125 -92.59375 L 58.390625 -92.46875 L 58.5625 -89.671875 L 57.28125 -89.59375 L 57.484375 -86.109375 L 58.671875 -86.1875 L 58.8125 -83.75 L 57.625 -83.671875 L 57.84375 -80.03125 L 58.703125 -80.09375 L 58.828125 -77.96875 L 57.96875 -77.90625 L 58.21875 -73.78125 L 58.8125 -73.828125 L 58.921875 -72.125 L 58.328125 -72.078125 L 58.59375 -67.515625 L 59.03125 -67.546875 L 59.109375 -66.28125 L 58.671875 -66.25 L 58.96875 -61.25 L 59.234375 -61.28125 L 59.28125 -60.515625 L 59.015625 -60.484375 L 62.515625 -2.296875 Z M 63.78125 -91.6875 L 64.796875 -91.75 L 64.734375 -92.765625 L 63.71875 -92.703125 Z M 91.140625 -89.59375 L 93.4375 -89.734375 L 93.3125 -92.015625 L 91.015625 -91.875 Z M 9.1875 -84.59375 L 11.484375 -84.71875 L 11.34375 -87.015625 L 9.046875 -86.890625 Z M 85.140625 -89.390625 L 87.078125 -89.5 L 86.953125 -91.453125 L 85.015625 -91.34375 Z M 15.53125 -85.140625 L 17.46875 -85.25 L 17.359375 -87.203125 L 15.421875 -87.09375 Z M 21.765625 -85.6875 L 23.46875 -85.78125 L 23.375 -87.46875 L 21.671875 -87.375 Z M 79.109375 -89.125 L 80.8125 -89.21875 L 80.71875 -90.90625 L 79.015625 -90.8125 Z M 73.109375 -88.9375 L 74.46875 -89.015625 L 74.390625 -90.359375 L 73.03125 -90.28125 Z M 67.015625 -88.75 L 68.109375 -88.8125 L 68.046875 -89.828125 L 66.953125 -89.765625 Z M 12.40625 -81.734375 L 14.703125 -81.875 L 14.578125 -84.140625 L 12.28125 -84 Z M 94.46875 -86.65625 L 96.75 -86.796875 L 96.625 -89.0625 L 94.34375 -88.921875 Z M 88.375 -86.46875 L 90.40625 -86.578125 L 90.28125 -88.59375 L 88.25 -88.484375 Z M 18.75 -82.203125 L 20.78125 -82.3125 L 20.65625 -84.34375 L 18.625 -84.234375 Z M 82.359375 -86.28125 L 84.046875 -86.375 L 83.953125 -88.046875 L 82.265625 -87.953125 Z M 25.09375 -82.75 L 26.765625 -82.84375 L 26.671875 -84.53125 L 25 -84.4375 Z M 76.328125 -86.078125 L 77.671875 -86.15625 L 77.59375 -87.5 L 76.25 -87.421875 Z M 70.3125 -85.890625 L 71.328125 -85.9375 L 71.265625 -86.9375 L 70.25 -86.890625 Z M 97.65625 -84.21875 L 99.953125 -84.34375 L 99.84375 -86.203125 L 97.546875 -86.078125 Z M 15.703125 -79.296875 L 17.96875 -79.4375 L 17.875 -81.21875 L 15.609375 -81.078125 Z M 91.65625 -83.859375 L 93.609375 -83.96875 L 93.515625 -85.65625 L 91.5625 -85.546875 Z M 22.046875 -79.6875 L 24 -79.796875 L 23.90625 -81.40625 L 21.953125 -81.296875 Z M 85.65625 -83.5 L 87.34375 -83.59375 L 87.265625 -85.109375 L 85.578125 -85.015625 Z M 59.34375 -80.796875 L 59.1875 -83.34375 L 61.71875 -83.5 L 61.875 -80.953125 Z M 79.640625 -83.140625 L 81 -83.21875 L 80.921875 -84.578125 L 79.5625 -84.5 Z M 73.5625 -82.9375 L 74.65625 -83 L 74.59375 -84.015625 L 73.5 -83.953125 Z M 62.546875 -78.015625 L 62.40625 -80.484375 L 64.875 -80.625 L 65.015625 -78.15625 Z M 65.796875 -75.171875 L 65.640625 -77.640625 L 68.09375 -77.78125 L 68.25 -75.3125 Z M 59.9375 -74.984375 L 59.8125 -77.109375 L 61.84375 -77.234375 L 61.96875 -75.109375 Z M 68.921875 -72.296875 L 68.78125 -74.84375 L 71.3125 -75 L 71.453125 -72.453125 Z M 63.0625 -72.203125 L 62.953125 -74.234375 L 65.078125 -74.359375 L 65.1875 -72.328125 Z M 66.296875 -69.328125 L 66.171875 -71.453125 L 68.296875 -71.59375 L 68.421875 -69.46875 Z M 60.453125 -69.234375 L 60.359375 -70.84375 L 62.046875 -70.953125 L 62.140625 -69.34375 Z M 69.546875 -66.484375 L 69.421875 -68.59375 L 71.4375 -68.71875 L 71.5625 -66.609375 Z M 63.671875 -66.390625 L 63.578125 -68 L 65.203125 -68.09375 L 65.296875 -66.484375 Z M 66.90625 -63.515625 L 66.8125 -65.203125 L 68.421875 -65.3125 L 68.515625 -63.625 Z M 61.0625 -63.421875 L 60.984375 -64.609375 L 62.15625 -64.671875 L 62.234375 -63.484375 Z M 70.0625 -60.734375 L 69.96875 -62.34375 L 71.640625 -62.4375 L 71.734375 -60.828125 Z M 64.1875 -60.546875 L 64.109375 -61.8125 L 65.390625 -61.890625 L 65.46875 -60.625 Z M 67.4375 -57.703125 L 67.359375 -58.96875 L 68.625 -59.046875 L 68.703125 -57.78125 Z M 61.578125 -57.609375 L 61.53125 -58.453125 L 62.375 -58.5 L 62.421875 -57.65625 Z M 70.640625 -54.921875 L 70.578125 -56.109375 L 71.765625 -56.171875 L 71.828125 -54.984375 Z M 64.8125 -54.734375 L 64.75 -55.578125 L 65.5 -55.625 L 65.5625 -54.78125 Z M 68.03125 -51.953125 L 67.984375 -52.71875 L 68.75 -52.765625 L 68.796875 -52 Z M 71.171875 -49.09375 L 71.109375 -49.9375 L 71.953125 -50 L 72.015625 -49.15625 Z M 71.171875 -49.09375 "/></g></g></g><g fill="#48cae4" fill-opacity="0.302"><g transform="translate(221.637613, 247.567902)"><g><path d="M 85.125 15.359375 C 75.425781 15.941406 66.445312 14.867188 58.1875 12.140625 C 49.9375 9.410156 42.441406 5.160156 35.703125 -0.609375 L 21.203125 -13.15625 C 14.703125 -18.769531 9.453125 -25.429688 5.453125 -33.140625 C 1.453125 -40.847656 -0.835938 -49.523438 -1.421875 -59.171875 C -1.859375 -66.503906 -1.210938 -73.429688 0.515625 -79.953125 C 2.242188 -86.484375 4.910156 -92.472656 8.515625 -97.921875 C 12.128906 -103.378906 16.539062 -108.160156 21.75 -112.265625 C 26.96875 -116.367188 32.84375 -119.632812 39.375 -122.0625 C 45.90625 -124.488281 52.976562 -125.929688 60.59375 -126.390625 C 64.09375 -126.597656 68.007812 -126.585938 72.34375 -126.359375 C 76.6875 -126.140625 81.085938 -125.640625 85.546875 -124.859375 C 90.015625 -124.078125 94.160156 -122.957031 97.984375 -121.5 L 116.625 -104.96875 L 118.40625 -75.4375 C 116.40625 -76.625 113.984375 -77.78125 111.140625 -78.90625 C 108.296875 -80.03125 105.222656 -81.046875 101.921875 -81.953125 C 98.617188 -82.867188 95.265625 -83.5625 91.859375 -84.03125 C 88.460938 -84.507812 85.242188 -84.660156 82.203125 -84.484375 C 74.359375 -84.015625 67.578125 -82.148438 61.859375 -78.890625 C 56.140625 -75.628906 51.800781 -71.289062 48.84375 -65.875 C 45.882812 -60.46875 44.617188 -54.265625 45.046875 -47.265625 C 45.441406 -40.609375 47.238281 -35.226562 50.4375 -31.125 C 56.050781 -29.019531 62.300781 -28.175781 69.1875 -28.59375 C 73.582031 -28.851562 77.660156 -29.578125 81.421875 -30.765625 L 81.28125 -33.140625 L 78.15625 -33.125 L 60.296875 -49.046875 L 58.8125 -73.984375 L 107.109375 -76.875 L 126.765625 -60.328125 L 130.546875 2.53125 C 128.148438 4.09375 125.195312 5.582031 121.6875 7 C 118.1875 8.425781 114.375 9.726562 110.25 10.90625 C 106.125 12.09375 101.90625 13.070312 97.59375 13.84375 C 93.289062 14.613281 89.132812 15.117188 85.125 15.359375 Z M 67.15625 -2.65625 C 70.769531 -2.875 74.519531 -3.335938 78.40625 -4.046875 C 82.300781 -4.765625 86.109375 -5.675781 89.828125 -6.78125 C 93.554688 -7.894531 97.046875 -9.140625 100.296875 -10.515625 C 103.554688 -11.890625 106.359375 -13.328125 108.703125 -14.828125 L 105.171875 -73.703125 L 62.03125 -71.125 L 63.21875 -51.34375 L 83.1875 -52.53125 L 84.625 -28.671875 C 80.019531 -26.929688 74.929688 -25.894531 69.359375 -25.5625 C 63.203125 -25.195312 57.5625 -25.75 52.4375 -27.21875 C 47.320312 -28.6875 42.859375 -30.960938 39.046875 -34.046875 C 35.242188 -37.128906 32.21875 -40.894531 29.96875 -45.34375 C 27.71875 -49.800781 26.398438 -54.84375 26.015625 -60.46875 C 25.671875 -66.101562 26.375 -71.3125 28.125 -76.09375 C 29.875 -80.875 32.523438 -85.050781 36.078125 -88.625 C 39.628906 -92.195312 43.941406 -95.039062 49.015625 -97.15625 C 54.085938 -99.28125 59.753906 -100.535156 66.015625 -100.921875 C 69.628906 -101.128906 73.300781 -101.0625 77.03125 -100.71875 C 80.757812 -100.375 84.359375 -99.78125 87.828125 -98.9375 C 91.304688 -98.09375 94.441406 -97.023438 97.234375 -95.734375 L 95.84375 -119 C 92.195312 -120.300781 88.285156 -121.304688 84.109375 -122.015625 C 79.929688 -122.734375 75.828125 -123.179688 71.796875 -123.359375 C 67.773438 -123.546875 64.097656 -123.539062 60.765625 -123.34375 C 53.484375 -122.90625 46.71875 -121.535156 40.46875 -119.234375 C 34.21875 -116.929688 28.617188 -113.832031 23.671875 -109.9375 C 18.722656 -106.050781 14.523438 -101.503906 11.078125 -96.296875 C 7.628906 -91.085938 5.082031 -85.375 3.4375 -79.15625 C 1.800781 -72.945312 1.191406 -66.347656 1.609375 -59.359375 C 2.140625 -50.503906 4.148438 -42.488281 7.640625 -35.3125 C 11.128906 -28.132812 15.796875 -22.03125 21.640625 -17 C 27.492188 -11.96875 34.285156 -8.210938 42.015625 -5.734375 C 49.753906 -3.253906 58.132812 -2.226562 67.15625 -2.65625 Z M 115.046875 -80.5 L 113.65625 -103.59375 L 99.046875 -116.546875 L 100.4375 -93.453125 Z M 56.4375 -95.0625 L 57.96875 -95.140625 L 57.890625 -96.671875 L 57.625 -96.65625 L 56.375 -96.34375 Z M 62.609375 -95.59375 L 63.796875 -95.671875 L 63.71875 -96.859375 L 62.53125 -96.78125 Z M 68.84375 -96.140625 L 69.609375 -96.1875 L 69.5625 -96.953125 L 68.796875 -96.90625 Z M 50.453125 -94.453125 L 52.046875 -94.546875 L 52.015625 -95.0625 Z M 47.1875 -91.03125 L 49.46875 -91.171875 L 49.328125 -93.546875 L 48.21875 -93.484375 L 47.078125 -92.890625 Z M 53.421875 -91.65625 L 55.28125 -91.765625 L 55.171875 -93.640625 L 53.3125 -93.53125 Z M 59.59375 -92.203125 L 61.09375 -92.296875 L 61 -93.828125 L 59.5 -93.734375 Z M 65.828125 -92.75 L 67.015625 -92.828125 L 66.953125 -94.015625 L 65.765625 -93.9375 Z M 72 -93.296875 L 72.765625 -93.34375 L 72.71875 -94.1875 L 71.953125 -94.140625 Z M 44.234375 -87.703125 L 46.859375 -87.859375 L 46.703125 -90.484375 L 44.078125 -90.328125 Z M 50.40625 -88.25 L 52.671875 -88.390625 L 52.53125 -90.6875 L 50.265625 -90.546875 Z M 56.5625 -88.796875 L 58.5 -88.90625 L 58.390625 -90.859375 L 56.453125 -90.75 Z M 62.8125 -89.34375 L 64.34375 -89.421875 L 64.25 -90.9375 L 62.71875 -90.859375 Z M 69.046875 -89.96875 L 70.15625 -90.03125 L 70.09375 -91.140625 L 68.984375 -91.078125 Z M 75.21875 -90.5 L 75.984375 -90.546875 L 75.9375 -91.3125 L 75.171875 -91.265625 Z M 45.375 -33.4375 C 43.445312 -37.226562 42.328125 -41.773438 42.015625 -47.078125 C 41.992188 -47.421875 41.96875 -47.773438 41.9375 -48.140625 C 41.914062 -48.503906 41.921875 -48.863281 41.953125 -49.21875 L 41.4375 -49.1875 L 41.390625 -50.03125 L 41.90625 -50.0625 C 41.925781 -52.550781 42.175781 -54.96875 42.65625 -57.3125 C 43.144531 -59.65625 43.800781 -61.898438 44.625 -64.046875 L 43.109375 -63.953125 L 43.015625 -65.734375 L 44.78125 -65.84375 L 44.859375 -64.484375 C 45.054688 -64.898438 45.242188 -65.296875 45.421875 -65.671875 C 45.597656 -66.054688 45.785156 -66.453125 45.984375 -66.859375 L 45.734375 -66.84375 L 45.59375 -69.109375 L 47.296875 -69.21875 L 48.390625 -70.8125 L 48.296875 -72.421875 L 49.640625 -72.5 L 51.078125 -74.109375 L 50.984375 -75.8125 L 52.828125 -75.921875 L 53.71875 -76.75 L 53.578125 -79.015625 L 50.625 -78.84375 L 50.453125 -81.8125 L 47.40625 -81.625 L 47.21875 -84.671875 L 44.171875 -84.484375 L 43.984375 -87.515625 L 41.03125 -87.34375 L 40.953125 -88.875 L 39 -87.21875 L 41.03125 -87.34375 L 41.203125 -84.484375 L 38.3125 -84.3125 L 38.1875 -86.421875 C 37.394531 -85.578125 36.628906 -84.707031 35.890625 -83.8125 L 38.015625 -83.953125 L 38.15625 -81.5 L 35.6875 -81.34375 L 35.5625 -83.375 C 35.195312 -82.957031 34.847656 -82.5 34.515625 -82 C 34.179688 -81.5 33.859375 -80.984375 33.546875 -80.453125 L 34.984375 -80.53125 L 35.109375 -78.421875 L 33 -78.296875 L 32.9375 -79.3125 C 32.726562 -78.957031 32.535156 -78.601562 32.359375 -78.25 C 32.179688 -77.90625 32.019531 -77.5625 31.875 -77.21875 L 32.046875 -77.21875 L 32.15625 -75.359375 L 31.046875 -75.296875 C 29.429688 -71.003906 28.75 -66.378906 29 -61.421875 L 29.515625 -61.453125 L 29.5625 -60.59375 L 29.046875 -60.5625 C 29.398438 -54.644531 30.945312 -49.390625 33.6875 -44.796875 C 36.425781 -40.210938 40.320312 -36.425781 45.375 -33.4375 Z M 47.375 -84.859375 L 50.078125 -85.015625 L 49.921875 -87.71875 L 47.21875 -87.5625 Z M 53.625 -85.40625 L 55.90625 -85.53125 L 55.765625 -87.796875 L 53.484375 -87.671875 Z M 59.796875 -85.9375 L 61.734375 -86.0625 L 61.625 -87.984375 L 59.6875 -87.859375 Z M 66.03125 -86.546875 L 67.5625 -86.640625 L 67.46875 -88.171875 L 65.9375 -88.078125 Z M 72.203125 -87.09375 L 73.390625 -87.171875 L 73.3125 -88.359375 L 72.125 -88.28125 Z M 78.4375 -87.640625 L 79.203125 -87.6875 L 79.15625 -88.4375 L 78.390625 -88.390625 Z M 41.5625 -81.453125 L 41.390625 -84.328125 L 44.171875 -84.484375 L 44.34375 -81.609375 Z M 50.609375 -82.0625 L 53.21875 -82.21875 L 53.0625 -84.84375 L 50.453125 -84.6875 Z M 56.765625 -82.609375 L 59.046875 -82.75 L 58.90625 -85.03125 L 56.625 -84.890625 Z M 63.015625 -83.15625 L 63.703125 -83.203125 L 64.84375 -83.6875 L 64.75 -85.125 L 62.890625 -85.015625 Z M 44.78125 -78.65625 L 44.609375 -81.453125 L 47.40625 -81.625 L 47.578125 -78.828125 Z M 38.84375 -78.46875 L 38.6875 -80.921875 L 41.234375 -81.078125 L 41.390625 -78.625 Z M 53.828125 -79.203125 L 56.453125 -79.359375 L 56.28125 -81.984375 L 53.65625 -81.828125 Z M 59.90625 -81.1875 L 61.546875 -82.125 L 59.859375 -82.03125 Z M 47.921875 -75.8125 L 47.75 -78.671875 L 50.625 -78.84375 L 50.796875 -75.984375 Z M 42.078125 -75.625 L 41.921875 -78.140625 L 44.375 -78.296875 L 44.53125 -75.78125 Z M 36.21875 -75.4375 L 36.078125 -77.625 L 38.203125 -77.75 L 38.34375 -75.5625 Z M 45.296875 -72.84375 L 45.140625 -75.296875 L 47.59375 -75.4375 L 47.75 -72.984375 Z M 39.359375 -72.65625 L 39.234375 -74.765625 L 41.4375 -74.90625 L 41.5625 -72.796875 Z M 33.53125 -72.46875 L 33.421875 -74.25 L 35.1875 -74.359375 L 35.296875 -72.578125 Z M 42.59375 -69.78125 L 42.46875 -71.90625 L 44.578125 -72.03125 L 44.703125 -69.90625 Z M 36.734375 -69.59375 L 36.625 -71.375 L 38.40625 -71.484375 L 38.515625 -69.703125 Z M 30.8125 -69.421875 L 30.71875 -70.859375 L 32.25 -70.953125 L 32.34375 -69.515625 Z M 39.890625 -66.75 L 39.78125 -68.59375 L 41.640625 -68.703125 L 41.75 -66.859375 Z M 34.046875 -66.5625 L 33.96875 -68.0625 L 35.46875 -68.15625 L 35.546875 -66.65625 Z M 127.359375 0.515625 L 123.8125 -58.78125 L 121.203125 -58.625 L 121.046875 -61.171875 L 120.421875 -61.640625 L 117.96875 -61.484375 L 117.828125 -63.84375 L 117.09375 -64.484375 L 114.8125 -64.359375 L 114.6875 -66.46875 L 113.796875 -67.265625 L 111.609375 -67.125 L 111.484375 -69.25 L 110.40625 -70.125 L 108.453125 -70.015625 L 111.859375 -13.328125 Z M 37.265625 -63.78125 L 37.171875 -65.21875 L 38.609375 -65.3125 L 38.703125 -63.875 Z M 31.328125 -63.59375 L 31.265625 -64.6875 L 32.453125 -64.765625 L 32.515625 -63.671875 Z M 40.40625 -60.90625 L 40.328125 -62.421875 L 41.84375 -62.515625 L 41.921875 -61 Z M 34.578125 -60.734375 L 34.5 -61.921875 L 35.65625 -62 L 35.734375 -60.8125 Z M 109.0625 -64.171875 L 108.9375 -66.296875 L 111.140625 -66.421875 L 111.265625 -64.296875 Z M 37.78125 -57.875 L 37.71875 -59.046875 L 38.8125 -59.109375 L 38.875 -57.9375 Z M 112.203125 -61.3125 L 112.078125 -63.5 L 114.265625 -63.625 L 114.390625 -61.4375 Z M 31.859375 -57.6875 L 31.8125 -58.515625 L 32.65625 -58.5625 L 32.703125 -57.734375 Z M 40.9375 -55.09375 L 40.875 -56.1875 L 42.0625 -56.265625 L 42.125 -55.171875 Z M 115.34375 -58.4375 L 115.21875 -60.640625 L 117.328125 -60.765625 L 117.453125 -58.5625 Z M 35.078125 -54.828125 L 35.03125 -55.765625 L 35.875 -55.8125 L 35.921875 -54.875 Z M 109.578125 -58.265625 L 109.46875 -60.125 L 111.328125 -60.234375 L 111.4375 -58.375 Z M 118.484375 -55.65625 L 118.359375 -57.78125 L 120.5625 -57.90625 L 120.6875 -55.78125 Z M 38.21875 -52.03125 L 38.171875 -52.875 L 39.015625 -52.921875 L 39.0625 -52.078125 Z M 112.734375 -55.484375 L 112.625 -57.265625 L 114.46875 -57.375 L 114.578125 -55.59375 Z M 121.71875 -52.796875 L 121.59375 -55 L 123.78125 -55.140625 L 123.90625 -52.9375 Z M 115.859375 -52.625 L 115.75 -54.484375 L 117.53125 -54.59375 L 117.640625 -52.734375 Z M 110.015625 -52.453125 L 109.921875 -53.96875 L 111.453125 -54.046875 L 111.546875 -52.53125 Z M 119 -49.75 L 118.890625 -51.609375 L 120.765625 -51.734375 L 120.875 -49.875 Z M 113.25 -49.5625 L 113.171875 -51.09375 L 114.671875 -51.1875 L 114.75 -49.65625 Z M 122.234375 -46.96875 L 122.125 -48.828125 L 123.96875 -48.9375 L 124.078125 -47.078125 Z M 116.375 -46.796875 L 116.28125 -48.3125 L 117.734375 -48.390625 L 117.828125 -46.875 Z M 110.453125 -46.59375 L 110.390625 -47.78125 L 111.578125 -47.859375 L 111.640625 -46.671875 Z M 119.515625 -43.921875 L 119.4375 -45.453125 L 120.96875 -45.546875 L 121.046875 -44.015625 Z M 113.6875 -43.75 L 113.609375 -44.9375 L 114.78125 -45 L 114.859375 -43.8125 Z M 122.765625 -41.0625 L 122.671875 -42.59375 L 124.171875 -42.6875 L 124.265625 -41.15625 Z M 116.8125 -40.875 L 116.75 -42.0625 L 118.015625 -42.140625 L 118.078125 -40.953125 Z M 110.984375 -40.703125 L 110.9375 -41.546875 L 111.78125 -41.59375 L 111.828125 -40.75 Z M 120.046875 -38.09375 L 119.96875 -39.28125 L 121.15625 -39.34375 L 121.234375 -38.15625 Z M 114.203125 -37.90625 L 114.15625 -38.75 L 115 -38.8125 L 115.046875 -37.96875 Z M 123.28125 -35.234375 L 123.203125 -36.421875 L 124.375 -36.5 L 124.453125 -35.3125 Z M 117.34375 -35.0625 L 117.296875 -35.90625 L 118.21875 -35.953125 L 118.265625 -35.109375 Z M 120.578125 -32.171875 L 120.515625 -33.03125 L 121.359375 -33.09375 L 121.421875 -32.234375 Z M 123.796875 -29.40625 L 123.75 -30.25 L 124.578125 -30.296875 L 124.625 -29.453125 Z M 108.984375 -11.453125 L 110.34375 -11.546875 L 110.296875 -12.296875 Z M 110.9375 -8.6875 L 113.484375 -8.84375 L 113.328125 -11.375 L 110.78125 -11.21875 Z M 105.1875 -8.4375 L 107.484375 -8.578125 L 107.359375 -10.515625 L 105.125 -9.359375 Z M 114 -5.890625 L 116.546875 -6.046875 L 116.390625 -8.59375 L 113.84375 -8.4375 Z M 108.25 -5.640625 L 110.59375 -5.78125 L 110.453125 -8.15625 L 108.109375 -8.015625 Z M 102.484375 -5.375 L 104.59375 -5.59375 L 104.46875 -7.625 L 102.4375 -7.5 Z M 96.796875 -5.203125 L 98.671875 -5.3125 L 98.609375 -6.5 L 96.765625 -5.796875 Z M 117.140625 -3.203125 L 119.671875 -3.34375 L 119.515625 -5.890625 L 116.984375 -5.75 Z M 111.359375 -2.921875 L 113.65625 -3.0625 L 113.53125 -5.359375 L 111.234375 -5.21875 Z M 105.625 -2.671875 L 107.734375 -2.8125 L 107.609375 -4.921875 L 105.5 -4.78125 Z M 99.859375 -2.40625 L 101.71875 -2.515625 L 101.59375 -4.390625 L 99.734375 -4.28125 Z M 94.09375 -2.15625 L 95.78125 -2.265625 L 95.6875 -3.953125 L 94 -3.84375 Z M 88.34375 -1.890625 L 89.78125 -1.984375 L 89.6875 -3.421875 L 89.015625 -3.375 L 88.265625 -3.15625 Z M 82.671875 -1.625 L 83.859375 -1.703125 L 83.828125 -2.046875 L 82.65625 -1.796875 Z M 120.1875 -0.421875 L 122.71875 -0.5625 L 122.5625 -3.09375 L 120.03125 -2.953125 Z M 114.4375 -0.171875 L 116.8125 -0.3125 L 116.671875 -2.65625 L 114.296875 -2.515625 Z M 108.671875 0.109375 L 110.78125 -0.109375 L 110.65625 -2.15625 L 108.609375 -2.03125 Z M 103 0.265625 L 104.859375 0.15625 L 104.75 -1.703125 L 102.890625 -1.59375 Z M 97.234375 0.53125 L 98.84375 0.4375 L 98.75 -1.171875 L 97.140625 -1.078125 Z M 91.46875 0.78125 L 92.90625 0.703125 L 92.8125 -0.734375 L 91.375 -0.65625 Z M 85.71875 1.0625 L 86.90625 0.984375 L 86.828125 -0.203125 L 85.640625 -0.125 Z M 79.953125 1.3125 L 80.984375 1.25 L 80.921875 0.234375 L 79.890625 0.296875 Z M 74.203125 1.578125 L 74.953125 1.453125 L 74.90625 0.765625 L 74.15625 0.8125 Z M 123.3125 2.28125 L 124.921875 2.1875 L 125.828125 1.703125 L 125.703125 -0.40625 L 123.15625 -0.25 Z M 117.5625 2.546875 L 119.84375 2.40625 L 119.703125 0.109375 L 117.421875 0.25 Z M 111.796875 2.796875 L 113.90625 2.671875 L 113.78125 0.5625 L 111.671875 0.6875 Z M 106.046875 3.0625 L 107.90625 2.953125 L 107.796875 1.09375 L 105.9375 1.203125 Z M 100.28125 3.328125 L 101.984375 3.234375 L 101.875 1.53125 L 100.171875 1.625 Z M 94.515625 3.578125 L 95.96875 3.5 L 95.890625 2.0625 L 94.4375 2.140625 Z M 88.859375 3.75 L 90.046875 3.6875 L 89.96875 2.5 L 88.78125 2.5625 Z M 83.078125 4.015625 L 84.015625 3.96875 L 83.96875 3.03125 L 83.03125 3.078125 Z M 77.328125 4.265625 L 78.09375 4.21875 L 78.046875 3.46875 L 77.28125 3.515625 Z M 120.546875 4.234375 L 122.859375 3.171875 L 122.84375 2.828125 L 120.46875 2.96875 Z M 114.859375 5.59375 L 116.96875 5.390625 L 116.859375 3.359375 L 114.828125 3.484375 Z M 109.171875 5.765625 L 111.03125 5.65625 L 110.921875 3.796875 L 109.0625 3.90625 Z M 103.421875 6.03125 L 105.03125 5.9375 L 104.9375 4.328125 L 103.328125 4.421875 Z M 97.65625 6.296875 L 99.09375 6.21875 L 99.015625 4.765625 L 97.578125 4.84375 Z M 91.890625 6.546875 L 93.078125 6.484375 L 93.015625 5.296875 L 91.828125 5.359375 Z M 86.15625 6.8125 L 87.171875 6.75 L 87.109375 5.734375 L 86.09375 5.796875 Z M 80.390625 6.984375 L 81.15625 6.9375 L 81.109375 6.171875 L 80.34375 6.21875 Z M 112.140625 7.1875 L 113.984375 6.578125 L 112.109375 6.6875 Z M 106.46875 8.8125 L 108.15625 8.359375 L 108.078125 7 L 106.375 7.109375 Z M 100.71875 9.0625 L 102.15625 8.96875 L 102.0625 7.53125 L 100.625 7.625 Z M 95.03125 9.25 L 96.21875 9.171875 L 96.15625 7.984375 L 94.96875 8.0625 Z M 89.28125 9.5 L 90.21875 9.4375 L 90.15625 8.5 L 89.21875 8.5625 Z M 83.515625 9.765625 L 84.265625 9.71875 L 84.234375 8.953125 L 83.484375 9 Z M 92.296875 11.625 L 93.296875 11.46875 L 93.28125 11.125 L 92.265625 11.1875 Z M 86.5625 12.21875 L 87.328125 12.171875 L 87.296875 11.65625 L 86.53125 11.703125 Z M 86.5625 12.21875 "/></g></g></g><g fill="#48cae4" fill-opacity="0.502"><g transform="translate(128.767173, 236.478474)"><g><path d="M 51.5 15.34375 L 32.671875 -1.359375 L 28.140625 -76.984375 L 14.109375 -76.140625 L -4.71875 -92.828125 L -6.34375 -119.984375 L 86.109375 -125.53125 L 104.9375 -108.828125 L 106.5625 -81.6875 L 75.609375 -79.828125 L 81.203125 13.5625 Z M 35.609375 -3.671875 L 59.28125 -5.09375 L 53.6875 -98.46875 L 85.484375 -100.375 L 84.15625 -122.375 L -3.125 -117.140625 L -1.796875 -95.140625 L 30.015625 -97.046875 Z M 103.34375 -84.546875 L 101.96875 -107.46875 L 87.359375 -120.453125 L 88.734375 -97.515625 Z M 2.640625 -90.40625 L 4.9375 -90.546875 L 4.828125 -92.484375 L 2.53125 -92.34375 Z M 8.96875 -90.953125 L 10.921875 -91.078125 L 10.828125 -92.84375 L 8.875 -92.71875 Z M 15.234375 -91.5 L 16.921875 -91.609375 L 16.828125 -93.203125 L 15.140625 -93.09375 Z M 57.109375 -92.46875 L 58.296875 -92.546875 L 58.171875 -94.5 L 56.921875 -95.59375 Z M 72.5625 -95.015625 L 74.265625 -95.125 L 74.1875 -96.640625 L 72.484375 -96.53125 Z M 78.578125 -95.203125 L 80.53125 -95.328125 L 80.4375 -97.015625 L 78.484375 -96.890625 Z M 84.625 -95.40625 L 86.890625 -95.546875 L 86.78125 -97.390625 L 84.515625 -97.25 Z M 21.5625 -92.0625 L 22.921875 -92.140625 L 22.84375 -93.46875 L 21.484375 -93.390625 Z M 66.5625 -94.75 L 67.921875 -94.828125 L 67.84375 -96.15625 L 66.484375 -96.078125 Z M 60.453125 -94.546875 L 61.546875 -94.609375 L 61.484375 -95.625 L 60.390625 -95.5625 Z M 5.875 -87.53125 L 8.15625 -87.671875 L 8.015625 -89.953125 L 5.734375 -89.8125 Z M 87.921875 -92.453125 L 90.21875 -92.59375 L 90.078125 -94.875 L 87.78125 -94.734375 Z M 81.828125 -92.265625 L 83.859375 -92.390625 L 83.734375 -94.421875 L 81.703125 -94.296875 Z M 12.203125 -88 L 14.234375 -88.125 L 14.125 -90.15625 L 12.09375 -90.03125 Z M 75.8125 -92.078125 L 77.484375 -92.171875 L 77.390625 -93.859375 L 75.71875 -93.765625 Z M 18.546875 -88.546875 L 20.234375 -88.65625 L 20.125 -90.359375 L 18.4375 -90.25 Z M 69.796875 -91.875 L 71.140625 -91.953125 L 71.0625 -93.3125 L 69.71875 -93.234375 Z M 24.890625 -89.109375 L 26.234375 -89.1875 L 26.15625 -90.546875 L 24.8125 -90.46875 Z M 77.984375 10.765625 L 74.5625 -46.328125 L 74.296875 -46.3125 L 74.25 -47.078125 L 74.515625 -47.09375 L 74.21875 -52.09375 L 73.796875 -52.0625 L 73.71875 -53.3125 L 74.140625 -53.34375 L 73.875 -57.921875 L 73.28125 -57.875 L 73.171875 -59.5625 L 73.765625 -59.609375 L 73.515625 -63.75 L 72.65625 -63.6875 L 72.53125 -65.71875 L 73.390625 -65.78125 L 73.171875 -69.59375 L 72.15625 -69.53125 L 72 -71.96875 L 73.015625 -72.03125 L 72.828125 -75.34375 L 71.546875 -75.265625 L 71.359375 -78.21875 L 72.640625 -78.296875 L 72.46875 -81.171875 L 71.109375 -81.078125 L 71.28125 -78.28125 L 68.421875 -78.109375 L 68.25 -81 L 71.03125 -81.171875 L 70.90625 -83.203125 L 69.921875 -84.078125 L 67.984375 -83.953125 L 68.140625 -81.15625 L 65.171875 -80.984375 L 65 -83.875 L 67.796875 -84.03125 L 67.671875 -86.0625 L 66.703125 -86.9375 L 64.75 -86.8125 L 64.921875 -83.9375 L 61.953125 -83.765625 L 61.78125 -86.71875 L 64.65625 -86.890625 L 64.53125 -88.84375 L 63.5625 -89.71875 L 61.53125 -89.59375 L 61.6875 -86.8125 L 58.8125 -86.640625 L 58.640625 -89.515625 L 61.421875 -89.671875 L 61.296875 -91.703125 L 60.328125 -92.59375 L 58.390625 -92.46875 L 58.5625 -89.671875 L 57.28125 -89.59375 L 57.484375 -86.109375 L 58.671875 -86.1875 L 58.8125 -83.75 L 57.625 -83.671875 L 57.84375 -80.03125 L 58.703125 -80.09375 L 58.828125 -77.96875 L 57.96875 -77.90625 L 58.21875 -73.78125 L 58.8125 -73.828125 L 58.921875 -72.125 L 58.328125 -72.078125 L 58.59375 -67.515625 L 59.03125 -67.546875 L 59.109375 -66.28125 L 58.671875 -66.25 L 58.96875 -61.25 L 59.234375 -61.28125 L 59.28125 -60.515625 L 59.015625 -60.484375 L 62.515625 -2.296875 Z M 63.78125 -91.6875 L 64.796875 -91.75 L 64.734375 -92.765625 L 63.71875 -92.703125 Z M 91.140625 -89.59375 L 93.4375 -89.734375 L 93.3125 -92.015625 L 91.015625 -91.875 Z M 9.1875 -84.59375 L 11.484375 -84.71875 L 11.34375 -87.015625 L 9.046875 -86.890625 Z M 85.140625 -89.390625 L 87.078125 -89.5 L 86.953125 -91.453125 L 85.015625 -91.34375 Z M 15.53125 -85.140625 L 17.46875 -85.25 L 17.359375 -87.203125 L 15.421875 -87.09375 Z M 21.765625 -85.6875 L 23.46875 -85.78125 L 23.375 -87.46875 L 21.671875 -87.375 Z M 79.109375 -89.125 L 80.8125 -89.21875 L 80.71875 -90.90625 L 79.015625 -90.8125 Z M 73.109375 -88.9375 L 74.46875 -89.015625 L 74.390625 -90.359375 L 73.03125 -90.28125 Z M 67.015625 -88.75 L 68.109375 -88.8125 L 68.046875 -89.828125 L 66.953125 -89.765625 Z M 12.40625 -81.734375 L 14.703125 -81.875 L 14.578125 -84.140625 L 12.28125 -84 Z M 94.46875 -86.65625 L 96.75 -86.796875 L 96.625 -89.0625 L 94.34375 -88.921875 Z M 88.375 -86.46875 L 90.40625 -86.578125 L 90.28125 -88.59375 L 88.25 -88.484375 Z M 18.75 -82.203125 L 20.78125 -82.3125 L 20.65625 -84.34375 L 18.625 -84.234375 Z M 82.359375 -86.28125 L 84.046875 -86.375 L 83.953125 -88.046875 L 82.265625 -87.953125 Z M 25.09375 -82.75 L 26.765625 -82.84375 L 26.671875 -84.53125 L 25 -84.4375 Z M 76.328125 -86.078125 L 77.671875 -86.15625 L 77.59375 -87.5 L 76.25 -87.421875 Z M 70.3125 -85.890625 L 71.328125 -85.9375 L 71.265625 -86.9375 L 70.25 -86.890625 Z M 97.65625 -84.21875 L 99.953125 -84.34375 L 99.84375 -86.203125 L 97.546875 -86.078125 Z M 15.703125 -79.296875 L 17.96875 -79.4375 L 17.875 -81.21875 L 15.609375 -81.078125 Z M 91.65625 -83.859375 L 93.609375 -83.96875 L 93.515625 -85.65625 L 91.5625 -85.546875 Z M 22.046875 -79.6875 L 24 -79.796875 L 23.90625 -81.40625 L 21.953125 -81.296875 Z M 85.65625 -83.5 L 87.34375 -83.59375 L 87.265625 -85.109375 L 85.578125 -85.015625 Z M 59.34375 -80.796875 L 59.1875 -83.34375 L 61.71875 -83.5 L 61.875 -80.953125 Z M 79.640625 -83.140625 L 81 -83.21875 L 80.921875 -84.578125 L 79.5625 -84.5 Z M 73.5625 -82.9375 L 74.65625 -83 L 74.59375 -84.015625 L 73.5 -83.953125 Z M 62.546875 -78.015625 L 62.40625 -80.484375 L 64.875 -80.625 L 65.015625 -78.15625 Z M 65.796875 -75.171875 L 65.640625 -77.640625 L 68.09375 -77.78125 L 68.25 -75.3125 Z M 59.9375 -74.984375 L 59.8125 -77.109375 L 61.84375 -77.234375 L 61.96875 -75.109375 Z M 68.921875 -72.296875 L 68.78125 -74.84375 L 71.3125 -75 L 71.453125 -72.453125 Z M 63.0625 -72.203125 L 62.953125 -74.234375 L 65.078125 -74.359375 L 65.1875 -72.328125 Z M 66.296875 -69.328125 L 66.171875 -71.453125 L 68.296875 -71.59375 L 68.421875 -69.46875 Z M 60.453125 -69.234375 L 60.359375 -70.84375 L 62.046875 -70.953125 L 62.140625 -69.34375 Z M 69.546875 -66.484375 L 69.421875 -68.59375 L 71.4375 -68.71875 L 71.5625 -66.609375 Z M 63.671875 -66.390625 L 63.578125 -68 L 65.203125 -68.09375 L 65.296875 -66.484375 Z M 66.90625 -63.515625 L 66.8125 -65.203125 L 68.421875 -65.3125 L 68.515625 -63.625 Z M 61.0625 -63.421875 L 60.984375 -64.609375 L 62.15625 -64.671875 L 62.234375 -63.484375 Z M 70.0625 -60.734375 L 69.96875 -62.34375 L 71.640625 -62.4375 L 71.734375 -60.828125 Z M 64.1875 -60.546875 L 64.109375 -61.8125 L 65.390625 -61.890625 L 65.46875 -60.625 Z M 67.4375 -57.703125 L 67.359375 -58.96875 L 68.625 -59.046875 L 68.703125 -57.78125 Z M 61.578125 -57.609375 L 61.53125 -58.453125 L 62.375 -58.5 L 62.421875 -57.65625 Z M 70.640625 -54.921875 L 70.578125 -56.109375 L 71.765625 -56.171875 L 71.828125 -54.984375 Z M 64.8125 -54.734375 L 64.75 -55.578125 L 65.5 -55.625 L 65.5625 -54.78125 Z M 68.03125 -51.953125 L 67.984375 -52.71875 L 68.75 -52.765625 L 68.796875 -52 Z M 71.171875 -49.09375 L 71.109375 -49.9375 L 71.953125 -50 L 72.015625 -49.15625 Z M 71.171875 -49.09375 "/></g></g></g><g fill="#48cae4" fill-opacity="0.502"><g transform="translate(204.043855, 231.964705)"><g><path d="M 85.125 15.359375 C 75.425781 15.941406 66.445312 14.867188 58.1875 12.140625 C 49.9375 9.410156 42.441406 5.160156 35.703125 -0.609375 L 21.203125 -13.15625 C 14.703125 -18.769531 9.453125 -25.429688 5.453125 -33.140625 C 1.453125 -40.847656 -0.835938 -49.523438 -1.421875 -59.171875 C -1.859375 -66.503906 -1.210938 -73.429688 0.515625 -79.953125 C 2.242188 -86.484375 4.910156 -92.472656 8.515625 -97.921875 C 12.128906 -103.378906 16.539062 -108.160156 21.75 -112.265625 C 26.96875 -116.367188 32.84375 -119.632812 39.375 -122.0625 C 45.90625 -124.488281 52.976562 -125.929688 60.59375 -126.390625 C 64.09375 -126.597656 68.007812 -126.585938 72.34375 -126.359375 C 76.6875 -126.140625 81.085938 -125.640625 85.546875 -124.859375 C 90.015625 -124.078125 94.160156 -122.957031 97.984375 -121.5 L 116.625 -104.96875 L 118.40625 -75.4375 C 116.40625 -76.625 113.984375 -77.78125 111.140625 -78.90625 C 108.296875 -80.03125 105.222656 -81.046875 101.921875 -81.953125 C 98.617188 -82.867188 95.265625 -83.5625 91.859375 -84.03125 C 88.460938 -84.507812 85.242188 -84.660156 82.203125 -84.484375 C 74.359375 -84.015625 67.578125 -82.148438 61.859375 -78.890625 C 56.140625 -75.628906 51.800781 -71.289062 48.84375 -65.875 C 45.882812 -60.46875 44.617188 -54.265625 45.046875 -47.265625 C 45.441406 -40.609375 47.238281 -35.226562 50.4375 -31.125 C 56.050781 -29.019531 62.300781 -28.175781 69.1875 -28.59375 C 73.582031 -28.851562 77.660156 -29.578125 81.421875 -30.765625 L 81.28125 -33.140625 L 78.15625 -33.125 L 60.296875 -49.046875 L 58.8125 -73.984375 L 107.109375 -76.875 L 126.765625 -60.328125 L 130.546875 2.53125 C 128.148438 4.09375 125.195312 5.582031 121.6875 7 C 118.1875 8.425781 114.375 9.726562 110.25 10.90625 C 106.125 12.09375 101.90625 13.070312 97.59375 13.84375 C 93.289062 14.613281 89.132812 15.117188 85.125 15.359375 Z M 67.15625 -2.65625 C 70.769531 -2.875 74.519531 -3.335938 78.40625 -4.046875 C 82.300781 -4.765625 86.109375 -5.675781 89.828125 -6.78125 C 93.554688 -7.894531 97.046875 -9.140625 100.296875 -10.515625 C 103.554688 -11.890625 106.359375 -13.328125 108.703125 -14.828125 L 105.171875 -73.703125 L 62.03125 -71.125 L 63.21875 -51.34375 L 83.1875 -52.53125 L 84.625 -28.671875 C 80.019531 -26.929688 74.929688 -25.894531 69.359375 -25.5625 C 63.203125 -25.195312 57.5625 -25.75 52.4375 -27.21875 C 47.320312 -28.6875 42.859375 -30.960938 39.046875 -34.046875 C 35.242188 -37.128906 32.21875 -40.894531 29.96875 -45.34375 C 27.71875 -49.800781 26.398438 -54.84375 26.015625 -60.46875 C 25.671875 -66.101562 26.375 -71.3125 28.125 -76.09375 C 29.875 -80.875 32.523438 -85.050781 36.078125 -88.625 C 39.628906 -92.195312 43.941406 -95.039062 49.015625 -97.15625 C 54.085938 -99.28125 59.753906 -100.535156 66.015625 -100.921875 C 69.628906 -101.128906 73.300781 -101.0625 77.03125 -100.71875 C 80.757812 -100.375 84.359375 -99.78125 87.828125 -98.9375 C 91.304688 -98.09375 94.441406 -97.023438 97.234375 -95.734375 L 95.84375 -119 C 92.195312 -120.300781 88.285156 -121.304688 84.109375 -122.015625 C 79.929688 -122.734375 75.828125 -123.179688 71.796875 -123.359375 C 67.773438 -123.546875 64.097656 -123.539062 60.765625 -123.34375 C 53.484375 -122.90625 46.71875 -121.535156 40.46875 -119.234375 C 34.21875 -116.929688 28.617188 -113.832031 23.671875 -109.9375 C 18.722656 -106.050781 14.523438 -101.503906 11.078125 -96.296875 C 7.628906 -91.085938 5.082031 -85.375 3.4375 -79.15625 C 1.800781 -72.945312 1.191406 -66.347656 1.609375 -59.359375 C 2.140625 -50.503906 4.148438 -42.488281 7.640625 -35.3125 C 11.128906 -28.132812 15.796875 -22.03125 21.640625 -17 C 27.492188 -11.96875 34.285156 -8.210938 42.015625 -5.734375 C 49.753906 -3.253906 58.132812 -2.226562 67.15625 -2.65625 Z M 115.046875 -80.5 L 113.65625 -103.59375 L 99.046875 -116.546875 L 100.4375 -93.453125 Z M 56.4375 -95.0625 L 57.96875 -95.140625 L 57.890625 -96.671875 L 57.625 -96.65625 L 56.375 -96.34375 Z M 62.609375 -95.59375 L 63.796875 -95.671875 L 63.71875 -96.859375 L 62.53125 -96.78125 Z M 68.84375 -96.140625 L 69.609375 -96.1875 L 69.5625 -96.953125 L 68.796875 -96.90625 Z M 50.453125 -94.453125 L 52.046875 -94.546875 L 52.015625 -95.0625 Z M 47.1875 -91.03125 L 49.46875 -91.171875 L 49.328125 -93.546875 L 48.21875 -93.484375 L 47.078125 -92.890625 Z M 53.421875 -91.65625 L 55.28125 -91.765625 L 55.171875 -93.640625 L 53.3125 -93.53125 Z M 59.59375 -92.203125 L 61.09375 -92.296875 L 61 -93.828125 L 59.5 -93.734375 Z M 65.828125 -92.75 L 67.015625 -92.828125 L 66.953125 -94.015625 L 65.765625 -93.9375 Z M 72 -93.296875 L 72.765625 -93.34375 L 72.71875 -94.1875 L 71.953125 -94.140625 Z M 44.234375 -87.703125 L 46.859375 -87.859375 L 46.703125 -90.484375 L 44.078125 -90.328125 Z M 50.40625 -88.25 L 52.671875 -88.390625 L 52.53125 -90.6875 L 50.265625 -90.546875 Z M 56.5625 -88.796875 L 58.5 -88.90625 L 58.390625 -90.859375 L 56.453125 -90.75 Z M 62.8125 -89.34375 L 64.34375 -89.421875 L 64.25 -90.9375 L 62.71875 -90.859375 Z M 69.046875 -89.96875 L 70.15625 -90.03125 L 70.09375 -91.140625 L 68.984375 -91.078125 Z M 75.21875 -90.5 L 75.984375 -90.546875 L 75.9375 -91.3125 L 75.171875 -91.265625 Z M 45.375 -33.4375 C 43.445312 -37.226562 42.328125 -41.773438 42.015625 -47.078125 C 41.992188 -47.421875 41.96875 -47.773438 41.9375 -48.140625 C 41.914062 -48.503906 41.921875 -48.863281 41.953125 -49.21875 L 41.4375 -49.1875 L 41.390625 -50.03125 L 41.90625 -50.0625 C 41.925781 -52.550781 42.175781 -54.96875 42.65625 -57.3125 C 43.144531 -59.65625 43.800781 -61.898438 44.625 -64.046875 L 43.109375 -63.953125 L 43.015625 -65.734375 L 44.78125 -65.84375 L 44.859375 -64.484375 C 45.054688 -64.898438 45.242188 -65.296875 45.421875 -65.671875 C 45.597656 -66.054688 45.785156 -66.453125 45.984375 -66.859375 L 45.734375 -66.84375 L 45.59375 -69.109375 L 47.296875 -69.21875 L 48.390625 -70.8125 L 48.296875 -72.421875 L 49.640625 -72.5 L 51.078125 -74.109375 L 50.984375 -75.8125 L 52.828125 -75.921875 L 53.71875 -76.75 L 53.578125 -79.015625 L 50.625 -78.84375 L 50.453125 -81.8125 L 47.40625 -81.625 L 47.21875 -84.671875 L 44.171875 -84.484375 L 43.984375 -87.515625 L 41.03125 -87.34375 L 40.953125 -88.875 L 39 -87.21875 L 41.03125 -87.34375 L 41.203125 -84.484375 L 38.3125 -84.3125 L 38.1875 -86.421875 C 37.394531 -85.578125 36.628906 -84.707031 35.890625 -83.8125 L 38.015625 -83.953125 L 38.15625 -81.5 L 35.6875 -81.34375 L 35.5625 -83.375 C 35.195312 -82.957031 34.847656 -82.5 34.515625 -82 C 34.179688 -81.5 33.859375 -80.984375 33.546875 -80.453125 L 34.984375 -80.53125 L 35.109375 -78.421875 L 33 -78.296875 L 32.9375 -79.3125 C 32.726562 -78.957031 32.535156 -78.601562 32.359375 -78.25 C 32.179688 -77.90625 32.019531 -77.5625 31.875 -77.21875 L 32.046875 -77.21875 L 32.15625 -75.359375 L 31.046875 -75.296875 C 29.429688 -71.003906 28.75 -66.378906 29 -61.421875 L 29.515625 -61.453125 L 29.5625 -60.59375 L 29.046875 -60.5625 C 29.398438 -54.644531 30.945312 -49.390625 33.6875 -44.796875 C 36.425781 -40.210938 40.320312 -36.425781 45.375 -33.4375 Z M 47.375 -84.859375 L 50.078125 -85.015625 L 49.921875 -87.71875 L 47.21875 -87.5625 Z M 53.625 -85.40625 L 55.90625 -85.53125 L 55.765625 -87.796875 L 53.484375 -87.671875 Z M 59.796875 -85.9375 L 61.734375 -86.0625 L 61.625 -87.984375 L 59.6875 -87.859375 Z M 66.03125 -86.546875 L 67.5625 -86.640625 L 67.46875 -88.171875 L 65.9375 -88.078125 Z M 72.203125 -87.09375 L 73.390625 -87.171875 L 73.3125 -88.359375 L 72.125 -88.28125 Z M 78.4375 -87.640625 L 79.203125 -87.6875 L 79.15625 -88.4375 L 78.390625 -88.390625 Z M 41.5625 -81.453125 L 41.390625 -84.328125 L 44.171875 -84.484375 L 44.34375 -81.609375 Z M 50.609375 -82.0625 L 53.21875 -82.21875 L 53.0625 -84.84375 L 50.453125 -84.6875 Z M 56.765625 -82.609375 L 59.046875 -82.75 L 58.90625 -85.03125 L 56.625 -84.890625 Z M 63.015625 -83.15625 L 63.703125 -83.203125 L 64.84375 -83.6875 L 64.75 -85.125 L 62.890625 -85.015625 Z M 44.78125 -78.65625 L 44.609375 -81.453125 L 47.40625 -81.625 L 47.578125 -78.828125 Z M 38.84375 -78.46875 L 38.6875 -80.921875 L 41.234375 -81.078125 L 41.390625 -78.625 Z M 53.828125 -79.203125 L 56.453125 -79.359375 L 56.28125 -81.984375 L 53.65625 -81.828125 Z M 59.90625 -81.1875 L 61.546875 -82.125 L 59.859375 -82.03125 Z M 47.921875 -75.8125 L 47.75 -78.671875 L 50.625 -78.84375 L 50.796875 -75.984375 Z M 42.078125 -75.625 L 41.921875 -78.140625 L 44.375 -78.296875 L 44.53125 -75.78125 Z M 36.21875 -75.4375 L 36.078125 -77.625 L 38.203125 -77.75 L 38.34375 -75.5625 Z M 45.296875 -72.84375 L 45.140625 -75.296875 L 47.59375 -75.4375 L 47.75 -72.984375 Z M 39.359375 -72.65625 L 39.234375 -74.765625 L 41.4375 -74.90625 L 41.5625 -72.796875 Z M 33.53125 -72.46875 L 33.421875 -74.25 L 35.1875 -74.359375 L 35.296875 -72.578125 Z M 42.59375 -69.78125 L 42.46875 -71.90625 L 44.578125 -72.03125 L 44.703125 -69.90625 Z M 36.734375 -69.59375 L 36.625 -71.375 L 38.40625 -71.484375 L 38.515625 -69.703125 Z M 30.8125 -69.421875 L 30.71875 -70.859375 L 32.25 -70.953125 L 32.34375 -69.515625 Z M 39.890625 -66.75 L 39.78125 -68.59375 L 41.640625 -68.703125 L 41.75 -66.859375 Z M 34.046875 -66.5625 L 33.96875 -68.0625 L 35.46875 -68.15625 L 35.546875 -66.65625 Z M 127.359375 0.515625 L 123.8125 -58.78125 L 121.203125 -58.625 L 121.046875 -61.171875 L 120.421875 -61.640625 L 117.96875 -61.484375 L 117.828125 -63.84375 L 117.09375 -64.484375 L 114.8125 -64.359375 L 114.6875 -66.46875 L 113.796875 -67.265625 L 111.609375 -67.125 L 111.484375 -69.25 L 110.40625 -70.125 L 108.453125 -70.015625 L 111.859375 -13.328125 Z M 37.265625 -63.78125 L 37.171875 -65.21875 L 38.609375 -65.3125 L 38.703125 -63.875 Z M 31.328125 -63.59375 L 31.265625 -64.6875 L 32.453125 -64.765625 L 32.515625 -63.671875 Z M 40.40625 -60.90625 L 40.328125 -62.421875 L 41.84375 -62.515625 L 41.921875 -61 Z M 34.578125 -60.734375 L 34.5 -61.921875 L 35.65625 -62 L 35.734375 -60.8125 Z M 109.0625 -64.171875 L 108.9375 -66.296875 L 111.140625 -66.421875 L 111.265625 -64.296875 Z M 37.78125 -57.875 L 37.71875 -59.046875 L 38.8125 -59.109375 L 38.875 -57.9375 Z M 112.203125 -61.3125 L 112.078125 -63.5 L 114.265625 -63.625 L 114.390625 -61.4375 Z M 31.859375 -57.6875 L 31.8125 -58.515625 L 32.65625 -58.5625 L 32.703125 -57.734375 Z M 40.9375 -55.09375 L 40.875 -56.1875 L 42.0625 -56.265625 L 42.125 -55.171875 Z M 115.34375 -58.4375 L 115.21875 -60.640625 L 117.328125 -60.765625 L 117.453125 -58.5625 Z M 35.078125 -54.828125 L 35.03125 -55.765625 L 35.875 -55.8125 L 35.921875 -54.875 Z M 109.578125 -58.265625 L 109.46875 -60.125 L 111.328125 -60.234375 L 111.4375 -58.375 Z M 118.484375 -55.65625 L 118.359375 -57.78125 L 120.5625 -57.90625 L 120.6875 -55.78125 Z M 38.21875 -52.03125 L 38.171875 -52.875 L 39.015625 -52.921875 L 39.0625 -52.078125 Z M 112.734375 -55.484375 L 112.625 -57.265625 L 114.46875 -57.375 L 114.578125 -55.59375 Z M 121.71875 -52.796875 L 121.59375 -55 L 123.78125 -55.140625 L 123.90625 -52.9375 Z M 115.859375 -52.625 L 115.75 -54.484375 L 117.53125 -54.59375 L 117.640625 -52.734375 Z M 110.015625 -52.453125 L 109.921875 -53.96875 L 111.453125 -54.046875 L 111.546875 -52.53125 Z M 119 -49.75 L 118.890625 -51.609375 L 120.765625 -51.734375 L 120.875 -49.875 Z M 113.25 -49.5625 L 113.171875 -51.09375 L 114.671875 -51.1875 L 114.75 -49.65625 Z M 122.234375 -46.96875 L 122.125 -48.828125 L 123.96875 -48.9375 L 124.078125 -47.078125 Z M 116.375 -46.796875 L 116.28125 -48.3125 L 117.734375 -48.390625 L 117.828125 -46.875 Z M 110.453125 -46.59375 L 110.390625 -47.78125 L 111.578125 -47.859375 L 111.640625 -46.671875 Z M 119.515625 -43.921875 L 119.4375 -45.453125 L 120.96875 -45.546875 L 121.046875 -44.015625 Z M 113.6875 -43.75 L 113.609375 -44.9375 L 114.78125 -45 L 114.859375 -43.8125 Z M 122.765625 -41.0625 L 122.671875 -42.59375 L 124.171875 -42.6875 L 124.265625 -41.15625 Z M 116.8125 -40.875 L 116.75 -42.0625 L 118.015625 -42.140625 L 118.078125 -40.953125 Z M 110.984375 -40.703125 L 110.9375 -41.546875 L 111.78125 -41.59375 L 111.828125 -40.75 Z M 120.046875 -38.09375 L 119.96875 -39.28125 L 121.15625 -39.34375 L 121.234375 -38.15625 Z M 114.203125 -37.90625 L 114.15625 -38.75 L 115 -38.8125 L 115.046875 -37.96875 Z M 123.28125 -35.234375 L 123.203125 -36.421875 L 124.375 -36.5 L 124.453125 -35.3125 Z M 117.34375 -35.0625 L 117.296875 -35.90625 L 118.21875 -35.953125 L 118.265625 -35.109375 Z M 120.578125 -32.171875 L 120.515625 -33.03125 L 121.359375 -33.09375 L 121.421875 -32.234375 Z M 123.796875 -29.40625 L 123.75 -30.25 L 124.578125 -30.296875 L 124.625 -29.453125 Z M 108.984375 -11.453125 L 110.34375 -11.546875 L 110.296875 -12.296875 Z M 110.9375 -8.6875 L 113.484375 -8.84375 L 113.328125 -11.375 L 110.78125 -11.21875 Z M 105.1875 -8.4375 L 107.484375 -8.578125 L 107.359375 -10.515625 L 105.125 -9.359375 Z M 114 -5.890625 L 116.546875 -6.046875 L 116.390625 -8.59375 L 113.84375 -8.4375 Z M 108.25 -5.640625 L 110.59375 -5.78125 L 110.453125 -8.15625 L 108.109375 -8.015625 Z M 102.484375 -5.375 L 104.59375 -5.59375 L 104.46875 -7.625 L 102.4375 -7.5 Z M 96.796875 -5.203125 L 98.671875 -5.3125 L 98.609375 -6.5 L 96.765625 -5.796875 Z M 117.140625 -3.203125 L 119.671875 -3.34375 L 119.515625 -5.890625 L 116.984375 -5.75 Z M 111.359375 -2.921875 L 113.65625 -3.0625 L 113.53125 -5.359375 L 111.234375 -5.21875 Z M 105.625 -2.671875 L 107.734375 -2.8125 L 107.609375 -4.921875 L 105.5 -4.78125 Z M 99.859375 -2.40625 L 101.71875 -2.515625 L 101.59375 -4.390625 L 99.734375 -4.28125 Z M 94.09375 -2.15625 L 95.78125 -2.265625 L 95.6875 -3.953125 L 94 -3.84375 Z M 88.34375 -1.890625 L 89.78125 -1.984375 L 89.6875 -3.421875 L 89.015625 -3.375 L 88.265625 -3.15625 Z M 82.671875 -1.625 L 83.859375 -1.703125 L 83.828125 -2.046875 L 82.65625 -1.796875 Z M 120.1875 -0.421875 L 122.71875 -0.5625 L 122.5625 -3.09375 L 120.03125 -2.953125 Z M 114.4375 -0.171875 L 116.8125 -0.3125 L 116.671875 -2.65625 L 114.296875 -2.515625 Z M 108.671875 0.109375 L 110.78125 -0.109375 L 110.65625 -2.15625 L 108.609375 -2.03125 Z M 103 0.265625 L 104.859375 0.15625 L 104.75 -1.703125 L 102.890625 -1.59375 Z M 97.234375 0.53125 L 98.84375 0.4375 L 98.75 -1.171875 L 97.140625 -1.078125 Z M 91.46875 0.78125 L 92.90625 0.703125 L 92.8125 -0.734375 L 91.375 -0.65625 Z M 85.71875 1.0625 L 86.90625 0.984375 L 86.828125 -0.203125 L 85.640625 -0.125 Z M 79.953125 1.3125 L 80.984375 1.25 L 80.921875 0.234375 L 79.890625 0.296875 Z M 74.203125 1.578125 L 74.953125 1.453125 L 74.90625 0.765625 L 74.15625 0.8125 Z M 123.3125 2.28125 L 124.921875 2.1875 L 125.828125 1.703125 L 125.703125 -0.40625 L 123.15625 -0.25 Z M 117.5625 2.546875 L 119.84375 2.40625 L 119.703125 0.109375 L 117.421875 0.25 Z M 111.796875 2.796875 L 113.90625 2.671875 L 113.78125 0.5625 L 111.671875 0.6875 Z M 106.046875 3.0625 L 107.90625 2.953125 L 107.796875 1.09375 L 105.9375 1.203125 Z M 100.28125 3.328125 L 101.984375 3.234375 L 101.875 1.53125 L 100.171875 1.625 Z M 94.515625 3.578125 L 95.96875 3.5 L 95.890625 2.0625 L 94.4375 2.140625 Z M 88.859375 3.75 L 90.046875 3.6875 L 89.96875 2.5 L 88.78125 2.5625 Z M 83.078125 4.015625 L 84.015625 3.96875 L 83.96875 3.03125 L 83.03125 3.078125 Z M 77.328125 4.265625 L 78.09375 4.21875 L 78.046875 3.46875 L 77.28125 3.515625 Z M 120.546875 4.234375 L 122.859375 3.171875 L 122.84375 2.828125 L 120.46875 2.96875 Z M 114.859375 5.59375 L 116.96875 5.390625 L 116.859375 3.359375 L 114.828125 3.484375 Z M 109.171875 5.765625 L 111.03125 5.65625 L 110.921875 3.796875 L 109.0625 3.90625 Z M 103.421875 6.03125 L 105.03125 5.9375 L 104.9375 4.328125 L 103.328125 4.421875 Z M 97.65625 6.296875 L 99.09375 6.21875 L 99.015625 4.765625 L 97.578125 4.84375 Z M 91.890625 6.546875 L 93.078125 6.484375 L 93.015625 5.296875 L 91.828125 5.359375 Z M 86.15625 6.8125 L 87.171875 6.75 L 87.109375 5.734375 L 86.09375 5.796875 Z M 80.390625 6.984375 L 81.15625 6.9375 L 81.109375 6.171875 L 80.34375 6.21875 Z M 112.140625 7.1875 L 113.984375 6.578125 L 112.109375 6.6875 Z M 106.46875 8.8125 L 108.15625 8.359375 L 108.078125 7 L 106.375 7.109375 Z M 100.71875 9.0625 L 102.15625 8.96875 L 102.0625 7.53125 L 100.625 7.625 Z M 95.03125 9.25 L 96.21875 9.171875 L 96.15625 7.984375 L 94.96875 8.0625 Z M 89.28125 9.5 L 90.21875 9.4375 L 90.15625 8.5 L 89.21875 8.5625 Z M 83.515625 9.765625 L 84.265625 9.71875 L 84.234375 8.953125 L 83.484375 9 Z M 92.296875 11.625 L 93.296875 11.46875 L 93.28125 11.125 L 92.265625 11.1875 Z M 86.5625 12.21875 L 87.328125 12.171875 L 87.296875 11.65625 L 86.53125 11.703125 Z M 86.5625 12.21875 "/></g></g></g><g fill="#00b4d8" fill-opacity="1"><g transform="translate(111.173413, 220.875278)"><g><path d="M 51.5 15.34375 L 32.671875 -1.359375 L 28.140625 -76.984375 L 14.109375 -76.140625 L -4.71875 -92.828125 L -6.34375 -119.984375 L 86.109375 -125.53125 L 104.9375 -108.828125 L 106.5625 -81.6875 L 75.609375 -79.828125 L 81.203125 13.5625 Z M 35.609375 -3.671875 L 59.28125 -5.09375 L 53.6875 -98.46875 L 85.484375 -100.375 L 84.15625 -122.375 L -3.125 -117.140625 L -1.796875 -95.140625 L 30.015625 -97.046875 Z M 103.34375 -84.546875 L 101.96875 -107.46875 L 87.359375 -120.453125 L 88.734375 -97.515625 Z M 2.640625 -90.40625 L 4.9375 -90.546875 L 4.828125 -92.484375 L 2.53125 -92.34375 Z M 8.96875 -90.953125 L 10.921875 -91.078125 L 10.828125 -92.84375 L 8.875 -92.71875 Z M 15.234375 -91.5 L 16.921875 -91.609375 L 16.828125 -93.203125 L 15.140625 -93.09375 Z M 57.109375 -92.46875 L 58.296875 -92.546875 L 58.171875 -94.5 L 56.921875 -95.59375 Z M 72.5625 -95.015625 L 74.265625 -95.125 L 74.1875 -96.640625 L 72.484375 -96.53125 Z M 78.578125 -95.203125 L 80.53125 -95.328125 L 80.4375 -97.015625 L 78.484375 -96.890625 Z M 84.625 -95.40625 L 86.890625 -95.546875 L 86.78125 -97.390625 L 84.515625 -97.25 Z M 21.5625 -92.0625 L 22.921875 -92.140625 L 22.84375 -93.46875 L 21.484375 -93.390625 Z M 66.5625 -94.75 L 67.921875 -94.828125 L 67.84375 -96.15625 L 66.484375 -96.078125 Z M 60.453125 -94.546875 L 61.546875 -94.609375 L 61.484375 -95.625 L 60.390625 -95.5625 Z M 5.875 -87.53125 L 8.15625 -87.671875 L 8.015625 -89.953125 L 5.734375 -89.8125 Z M 87.921875 -92.453125 L 90.21875 -92.59375 L 90.078125 -94.875 L 87.78125 -94.734375 Z M 81.828125 -92.265625 L 83.859375 -92.390625 L 83.734375 -94.421875 L 81.703125 -94.296875 Z M 12.203125 -88 L 14.234375 -88.125 L 14.125 -90.15625 L 12.09375 -90.03125 Z M 75.8125 -92.078125 L 77.484375 -92.171875 L 77.390625 -93.859375 L 75.71875 -93.765625 Z M 18.546875 -88.546875 L 20.234375 -88.65625 L 20.125 -90.359375 L 18.4375 -90.25 Z M 69.796875 -91.875 L 71.140625 -91.953125 L 71.0625 -93.3125 L 69.71875 -93.234375 Z M 24.890625 -89.109375 L 26.234375 -89.1875 L 26.15625 -90.546875 L 24.8125 -90.46875 Z M 77.984375 10.765625 L 74.5625 -46.328125 L 74.296875 -46.3125 L 74.25 -47.078125 L 74.515625 -47.09375 L 74.21875 -52.09375 L 73.796875 -52.0625 L 73.71875 -53.3125 L 74.140625 -53.34375 L 73.875 -57.921875 L 73.28125 -57.875 L 73.171875 -59.5625 L 73.765625 -59.609375 L 73.515625 -63.75 L 72.65625 -63.6875 L 72.53125 -65.71875 L 73.390625 -65.78125 L 73.171875 -69.59375 L 72.15625 -69.53125 L 72 -71.96875 L 73.015625 -72.03125 L 72.828125 -75.34375 L 71.546875 -75.265625 L 71.359375 -78.21875 L 72.640625 -78.296875 L 72.46875 -81.171875 L 71.109375 -81.078125 L 71.28125 -78.28125 L 68.421875 -78.109375 L 68.25 -81 L 71.03125 -81.171875 L 70.90625 -83.203125 L 69.921875 -84.078125 L 67.984375 -83.953125 L 68.140625 -81.15625 L 65.171875 -80.984375 L 65 -83.875 L 67.796875 -84.03125 L 67.671875 -86.0625 L 66.703125 -86.9375 L 64.75 -86.8125 L 64.921875 -83.9375 L 61.953125 -83.765625 L 61.78125 -86.71875 L 64.65625 -86.890625 L 64.53125 -88.84375 L 63.5625 -89.71875 L 61.53125 -89.59375 L 61.6875 -86.8125 L 58.8125 -86.640625 L 58.640625 -89.515625 L 61.421875 -89.671875 L 61.296875 -91.703125 L 60.328125 -92.59375 L 58.390625 -92.46875 L 58.5625 -89.671875 L 57.28125 -89.59375 L 57.484375 -86.109375 L 58.671875 -86.1875 L 58.8125 -83.75 L 57.625 -83.671875 L 57.84375 -80.03125 L 58.703125 -80.09375 L 58.828125 -77.96875 L 57.96875 -77.90625 L 58.21875 -73.78125 L 58.8125 -73.828125 L 58.921875 -72.125 L 58.328125 -72.078125 L 58.59375 -67.515625 L 59.03125 -67.546875 L 59.109375 -66.28125 L 58.671875 -66.25 L 58.96875 -61.25 L 59.234375 -61.28125 L 59.28125 -60.515625 L 59.015625 -60.484375 L 62.515625 -2.296875 Z M 63.78125 -91.6875 L 64.796875 -91.75 L 64.734375 -92.765625 L 63.71875 -92.703125 Z M 91.140625 -89.59375 L 93.4375 -89.734375 L 93.3125 -92.015625 L 91.015625 -91.875 Z M 9.1875 -84.59375 L 11.484375 -84.71875 L 11.34375 -87.015625 L 9.046875 -86.890625 Z M 85.140625 -89.390625 L 87.078125 -89.5 L 86.953125 -91.453125 L 85.015625 -91.34375 Z M 15.53125 -85.140625 L 17.46875 -85.25 L 17.359375 -87.203125 L 15.421875 -87.09375 Z M 21.765625 -85.6875 L 23.46875 -85.78125 L 23.375 -87.46875 L 21.671875 -87.375 Z M 79.109375 -89.125 L 80.8125 -89.21875 L 80.71875 -90.90625 L 79.015625 -90.8125 Z M 73.109375 -88.9375 L 74.46875 -89.015625 L 74.390625 -90.359375 L 73.03125 -90.28125 Z M 67.015625 -88.75 L 68.109375 -88.8125 L 68.046875 -89.828125 L 66.953125 -89.765625 Z M 12.40625 -81.734375 L 14.703125 -81.875 L 14.578125 -84.140625 L 12.28125 -84 Z M 94.46875 -86.65625 L 96.75 -86.796875 L 96.625 -89.0625 L 94.34375 -88.921875 Z M 88.375 -86.46875 L 90.40625 -86.578125 L 90.28125 -88.59375 L 88.25 -88.484375 Z M 18.75 -82.203125 L 20.78125 -82.3125 L 20.65625 -84.34375 L 18.625 -84.234375 Z M 82.359375 -86.28125 L 84.046875 -86.375 L 83.953125 -88.046875 L 82.265625 -87.953125 Z M 25.09375 -82.75 L 26.765625 -82.84375 L 26.671875 -84.53125 L 25 -84.4375 Z M 76.328125 -86.078125 L 77.671875 -86.15625 L 77.59375 -87.5 L 76.25 -87.421875 Z M 70.3125 -85.890625 L 71.328125 -85.9375 L 71.265625 -86.9375 L 70.25 -86.890625 Z M 97.65625 -84.21875 L 99.953125 -84.34375 L 99.84375 -86.203125 L 97.546875 -86.078125 Z M 15.703125 -79.296875 L 17.96875 -79.4375 L 17.875 -81.21875 L 15.609375 -81.078125 Z M 91.65625 -83.859375 L 93.609375 -83.96875 L 93.515625 -85.65625 L 91.5625 -85.546875 Z M 22.046875 -79.6875 L 24 -79.796875 L 23.90625 -81.40625 L 21.953125 -81.296875 Z M 85.65625 -83.5 L 87.34375 -83.59375 L 87.265625 -85.109375 L 85.578125 -85.015625 Z M 59.34375 -80.796875 L 59.1875 -83.34375 L 61.71875 -83.5 L 61.875 -80.953125 Z M 79.640625 -83.140625 L 81 -83.21875 L 80.921875 -84.578125 L 79.5625 -84.5 Z M 73.5625 -82.9375 L 74.65625 -83 L 74.59375 -84.015625 L 73.5 -83.953125 Z M 62.546875 -78.015625 L 62.40625 -80.484375 L 64.875 -80.625 L 65.015625 -78.15625 Z M 65.796875 -75.171875 L 65.640625 -77.640625 L 68.09375 -77.78125 L 68.25 -75.3125 Z M 59.9375 -74.984375 L 59.8125 -77.109375 L 61.84375 -77.234375 L 61.96875 -75.109375 Z M 68.921875 -72.296875 L 68.78125 -74.84375 L 71.3125 -75 L 71.453125 -72.453125 Z M 63.0625 -72.203125 L 62.953125 -74.234375 L 65.078125 -74.359375 L 65.1875 -72.328125 Z M 66.296875 -69.328125 L 66.171875 -71.453125 L 68.296875 -71.59375 L 68.421875 -69.46875 Z M 60.453125 -69.234375 L 60.359375 -70.84375 L 62.046875 -70.953125 L 62.140625 -69.34375 Z M 69.546875 -66.484375 L 69.421875 -68.59375 L 71.4375 -68.71875 L 71.5625 -66.609375 Z M 63.671875 -66.390625 L 63.578125 -68 L 65.203125 -68.09375 L 65.296875 -66.484375 Z M 66.90625 -63.515625 L 66.8125 -65.203125 L 68.421875 -65.3125 L 68.515625 -63.625 Z M 61.0625 -63.421875 L 60.984375 -64.609375 L 62.15625 -64.671875 L 62.234375 -63.484375 Z M 70.0625 -60.734375 L 69.96875 -62.34375 L 71.640625 -62.4375 L 71.734375 -60.828125 Z M 64.1875 -60.546875 L 64.109375 -61.8125 L 65.390625 -61.890625 L 65.46875 -60.625 Z M 67.4375 -57.703125 L 67.359375 -58.96875 L 68.625 -59.046875 L 68.703125 -57.78125 Z M 61.578125 -57.609375 L 61.53125 -58.453125 L 62.375 -58.5 L 62.421875 -57.65625 Z M 70.640625 -54.921875 L 70.578125 -56.109375 L 71.765625 -56.171875 L 71.828125 -54.984375 Z M 64.8125 -54.734375 L 64.75 -55.578125 L 65.5 -55.625 L 65.5625 -54.78125 Z M 68.03125 -51.953125 L 67.984375 -52.71875 L 68.75 -52.765625 L 68.796875 -52 Z M 71.171875 -49.09375 L 71.109375 -49.9375 L 71.953125 -50 L 72.015625 -49.15625 Z M 71.171875 -49.09375 "/></g></g></g><g fill="#00b4d8" fill-opacity="1"><g transform="translate(186.450095, 216.361508)"><g><path d="M 85.125 15.359375 C 75.425781 15.941406 66.445312 14.867188 58.1875 12.140625 C 49.9375 9.410156 42.441406 5.160156 35.703125 -0.609375 L 21.203125 -13.15625 C 14.703125 -18.769531 9.453125 -25.429688 5.453125 -33.140625 C 1.453125 -40.847656 -0.835938 -49.523438 -1.421875 -59.171875 C -1.859375 -66.503906 -1.210938 -73.429688 0.515625 -79.953125 C 2.242188 -86.484375 4.910156 -92.472656 8.515625 -97.921875 C 12.128906 -103.378906 16.539062 -108.160156 21.75 -112.265625 C 26.96875 -116.367188 32.84375 -119.632812 39.375 -122.0625 C 45.90625 -124.488281 52.976562 -125.929688 60.59375 -126.390625 C 64.09375 -126.597656 68.007812 -126.585938 72.34375 -126.359375 C 76.6875 -126.140625 81.085938 -125.640625 85.546875 -124.859375 C 90.015625 -124.078125 94.160156 -122.957031 97.984375 -121.5 L 116.625 -104.96875 L 118.40625 -75.4375 C 116.40625 -76.625 113.984375 -77.78125 111.140625 -78.90625 C 108.296875 -80.03125 105.222656 -81.046875 101.921875 -81.953125 C 98.617188 -82.867188 95.265625 -83.5625 91.859375 -84.03125 C 88.460938 -84.507812 85.242188 -84.660156 82.203125 -84.484375 C 74.359375 -84.015625 67.578125 -82.148438 61.859375 -78.890625 C 56.140625 -75.628906 51.800781 -71.289062 48.84375 -65.875 C 45.882812 -60.46875 44.617188 -54.265625 45.046875 -47.265625 C 45.441406 -40.609375 47.238281 -35.226562 50.4375 -31.125 C 56.050781 -29.019531 62.300781 -28.175781 69.1875 -28.59375 C 73.582031 -28.851562 77.660156 -29.578125 81.421875 -30.765625 L 81.28125 -33.140625 L 78.15625 -33.125 L 60.296875 -49.046875 L 58.8125 -73.984375 L 107.109375 -76.875 L 126.765625 -60.328125 L 130.546875 2.53125 C 128.148438 4.09375 125.195312 5.582031 121.6875 7 C 118.1875 8.425781 114.375 9.726562 110.25 10.90625 C 106.125 12.09375 101.90625 13.070312 97.59375 13.84375 C 93.289062 14.613281 89.132812 15.117188 85.125 15.359375 Z M 67.15625 -2.65625 C 70.769531 -2.875 74.519531 -3.335938 78.40625 -4.046875 C 82.300781 -4.765625 86.109375 -5.675781 89.828125 -6.78125 C 93.554688 -7.894531 97.046875 -9.140625 100.296875 -10.515625 C 103.554688 -11.890625 106.359375 -13.328125 108.703125 -14.828125 L 105.171875 -73.703125 L 62.03125 -71.125 L 63.21875 -51.34375 L 83.1875 -52.53125 L 84.625 -28.671875 C 80.019531 -26.929688 74.929688 -25.894531 69.359375 -25.5625 C 63.203125 -25.195312 57.5625 -25.75 52.4375 -27.21875 C 47.320312 -28.6875 42.859375 -30.960938 39.046875 -34.046875 C 35.242188 -37.128906 32.21875 -40.894531 29.96875 -45.34375 C 27.71875 -49.800781 26.398438 -54.84375 26.015625 -60.46875 C 25.671875 -66.101562 26.375 -71.3125 28.125 -76.09375 C 29.875 -80.875 32.523438 -85.050781 36.078125 -88.625 C 39.628906 -92.195312 43.941406 -95.039062 49.015625 -97.15625 C 54.085938 -99.28125 59.753906 -100.535156 66.015625 -100.921875 C 69.628906 -101.128906 73.300781 -101.0625 77.03125 -100.71875 C 80.757812 -100.375 84.359375 -99.78125 87.828125 -98.9375 C 91.304688 -98.09375 94.441406 -97.023438 97.234375 -95.734375 L 95.84375 -119 C 92.195312 -120.300781 88.285156 -121.304688 84.109375 -122.015625 C 79.929688 -122.734375 75.828125 -123.179688 71.796875 -123.359375 C 67.773438 -123.546875 64.097656 -123.539062 60.765625 -123.34375 C 53.484375 -122.90625 46.71875 -121.535156 40.46875 -119.234375 C 34.21875 -116.929688 28.617188 -113.832031 23.671875 -109.9375 C 18.722656 -106.050781 14.523438 -101.503906 11.078125 -96.296875 C 7.628906 -91.085938 5.082031 -85.375 3.4375 -79.15625 C 1.800781 -72.945312 1.191406 -66.347656 1.609375 -59.359375 C 2.140625 -50.503906 4.148438 -42.488281 7.640625 -35.3125 C 11.128906 -28.132812 15.796875 -22.03125 21.640625 -17 C 27.492188 -11.96875 34.285156 -8.210938 42.015625 -5.734375 C 49.753906 -3.253906 58.132812 -2.226562 67.15625 -2.65625 Z M 115.046875 -80.5 L 113.65625 -103.59375 L 99.046875 -116.546875 L 100.4375 -93.453125 Z M 56.4375 -95.0625 L 57.96875 -95.140625 L 57.890625 -96.671875 L 57.625 -96.65625 L 56.375 -96.34375 Z M 62.609375 -95.59375 L 63.796875 -95.671875 L 63.71875 -96.859375 L 62.53125 -96.78125 Z M 68.84375 -96.140625 L 69.609375 -96.1875 L 69.5625 -96.953125 L 68.796875 -96.90625 Z M 50.453125 -94.453125 L 52.046875 -94.546875 L 52.015625 -95.0625 Z M 47.1875 -91.03125 L 49.46875 -91.171875 L 49.328125 -93.546875 L 48.21875 -93.484375 L 47.078125 -92.890625 Z M 53.421875 -91.65625 L 55.28125 -91.765625 L 55.171875 -93.640625 L 53.3125 -93.53125 Z M 59.59375 -92.203125 L 61.09375 -92.296875 L 61 -93.828125 L 59.5 -93.734375 Z M 65.828125 -92.75 L 67.015625 -92.828125 L 66.953125 -94.015625 L 65.765625 -93.9375 Z M 72 -93.296875 L 72.765625 -93.34375 L 72.71875 -94.1875 L 71.953125 -94.140625 Z M 44.234375 -87.703125 L 46.859375 -87.859375 L 46.703125 -90.484375 L 44.078125 -90.328125 Z M 50.40625 -88.25 L 52.671875 -88.390625 L 52.53125 -90.6875 L 50.265625 -90.546875 Z M 56.5625 -88.796875 L 58.5 -88.90625 L 58.390625 -90.859375 L 56.453125 -90.75 Z M 62.8125 -89.34375 L 64.34375 -89.421875 L 64.25 -90.9375 L 62.71875 -90.859375 Z M 69.046875 -89.96875 L 70.15625 -90.03125 L 70.09375 -91.140625 L 68.984375 -91.078125 Z M 75.21875 -90.5 L 75.984375 -90.546875 L 75.9375 -91.3125 L 75.171875 -91.265625 Z M 45.375 -33.4375 C 43.445312 -37.226562 42.328125 -41.773438 42.015625 -47.078125 C 41.992188 -47.421875 41.96875 -47.773438 41.9375 -48.140625 C 41.914062 -48.503906 41.921875 -48.863281 41.953125 -49.21875 L 41.4375 -49.1875 L 41.390625 -50.03125 L 41.90625 -50.0625 C 41.925781 -52.550781 42.175781 -54.96875 42.65625 -57.3125 C 43.144531 -59.65625 43.800781 -61.898438 44.625 -64.046875 L 43.109375 -63.953125 L 43.015625 -65.734375 L 44.78125 -65.84375 L 44.859375 -64.484375 C 45.054688 -64.898438 45.242188 -65.296875 45.421875 -65.671875 C 45.597656 -66.054688 45.785156 -66.453125 45.984375 -66.859375 L 45.734375 -66.84375 L 45.59375 -69.109375 L 47.296875 -69.21875 L 48.390625 -70.8125 L 48.296875 -72.421875 L 49.640625 -72.5 L 51.078125 -74.109375 L 50.984375 -75.8125 L 52.828125 -75.921875 L 53.71875 -76.75 L 53.578125 -79.015625 L 50.625 -78.84375 L 50.453125 -81.8125 L 47.40625 -81.625 L 47.21875 -84.671875 L 44.171875 -84.484375 L 43.984375 -87.515625 L 41.03125 -87.34375 L 40.953125 -88.875 L 39 -87.21875 L 41.03125 -87.34375 L 41.203125 -84.484375 L 38.3125 -84.3125 L 38.1875 -86.421875 C 37.394531 -85.578125 36.628906 -84.707031 35.890625 -83.8125 L 38.015625 -83.953125 L 38.15625 -81.5 L 35.6875 -81.34375 L 35.5625 -83.375 C 35.195312 -82.957031 34.847656 -82.5 34.515625 -82 C 34.179688 -81.5 33.859375 -80.984375 33.546875 -80.453125 L 34.984375 -80.53125 L 35.109375 -78.421875 L 33 -78.296875 L 32.9375 -79.3125 C 32.726562 -78.957031 32.535156 -78.601562 32.359375 -78.25 C 32.179688 -77.90625 32.019531 -77.5625 31.875 -77.21875 L 32.046875 -77.21875 L 32.15625 -75.359375 L 31.046875 -75.296875 C 29.429688 -71.003906 28.75 -66.378906 29 -61.421875 L 29.515625 -61.453125 L 29.5625 -60.59375 L 29.046875 -60.5625 C 29.398438 -54.644531 30.945312 -49.390625 33.6875 -44.796875 C 36.425781 -40.210938 40.320312 -36.425781 45.375 -33.4375 Z M 47.375 -84.859375 L 50.078125 -85.015625 L 49.921875 -87.71875 L 47.21875 -87.5625 Z M 53.625 -85.40625 L 55.90625 -85.53125 L 55.765625 -87.796875 L 53.484375 -87.671875 Z M 59.796875 -85.9375 L 61.734375 -86.0625 L 61.625 -87.984375 L 59.6875 -87.859375 Z M 66.03125 -86.546875 L 67.5625 -86.640625 L 67.46875 -88.171875 L 65.9375 -88.078125 Z M 72.203125 -87.09375 L 73.390625 -87.171875 L 73.3125 -88.359375 L 72.125 -88.28125 Z M 78.4375 -87.640625 L 79.203125 -87.6875 L 79.15625 -88.4375 L 78.390625 -88.390625 Z M 41.5625 -81.453125 L 41.390625 -84.328125 L 44.171875 -84.484375 L 44.34375 -81.609375 Z M 50.609375 -82.0625 L 53.21875 -82.21875 L 53.0625 -84.84375 L 50.453125 -84.6875 Z M 56.765625 -82.609375 L 59.046875 -82.75 L 58.90625 -85.03125 L 56.625 -84.890625 Z M 63.015625 -83.15625 L 63.703125 -83.203125 L 64.84375 -83.6875 L 64.75 -85.125 L 62.890625 -85.015625 Z M 44.78125 -78.65625 L 44.609375 -81.453125 L 47.40625 -81.625 L 47.578125 -78.828125 Z M 38.84375 -78.46875 L 38.6875 -80.921875 L 41.234375 -81.078125 L 41.390625 -78.625 Z M 53.828125 -79.203125 L 56.453125 -79.359375 L 56.28125 -81.984375 L 53.65625 -81.828125 Z M 59.90625 -81.1875 L 61.546875 -82.125 L 59.859375 -82.03125 Z M 47.921875 -75.8125 L 47.75 -78.671875 L 50.625 -78.84375 L 50.796875 -75.984375 Z M 42.078125 -75.625 L 41.921875 -78.140625 L 44.375 -78.296875 L 44.53125 -75.78125 Z M 36.21875 -75.4375 L 36.078125 -77.625 L 38.203125 -77.75 L 38.34375 -75.5625 Z M 45.296875 -72.84375 L 45.140625 -75.296875 L 47.59375 -75.4375 L 47.75 -72.984375 Z M 39.359375 -72.65625 L 39.234375 -74.765625 L 41.4375 -74.90625 L 41.5625 -72.796875 Z M 33.53125 -72.46875 L 33.421875 -74.25 L 35.1875 -74.359375 L 35.296875 -72.578125 Z M 42.59375 -69.78125 L 42.46875 -71.90625 L 44.578125 -72.03125 L 44.703125 -69.90625 Z M 36.734375 -69.59375 L 36.625 -71.375 L 38.40625 -71.484375 L 38.515625 -69.703125 Z M 30.8125 -69.421875 L 30.71875 -70.859375 L 32.25 -70.953125 L 32.34375 -69.515625 Z M 39.890625 -66.75 L 39.78125 -68.59375 L 41.640625 -68.703125 L 41.75 -66.859375 Z M 34.046875 -66.5625 L 33.96875 -68.0625 L 35.46875 -68.15625 L 35.546875 -66.65625 Z M 127.359375 0.515625 L 123.8125 -58.78125 L 121.203125 -58.625 L 121.046875 -61.171875 L 120.421875 -61.640625 L 117.96875 -61.484375 L 117.828125 -63.84375 L 117.09375 -64.484375 L 114.8125 -64.359375 L 114.6875 -66.46875 L 113.796875 -67.265625 L 111.609375 -67.125 L 111.484375 -69.25 L 110.40625 -70.125 L 108.453125 -70.015625 L 111.859375 -13.328125 Z M 37.265625 -63.78125 L 37.171875 -65.21875 L 38.609375 -65.3125 L 38.703125 -63.875 Z M 31.328125 -63.59375 L 31.265625 -64.6875 L 32.453125 -64.765625 L 32.515625 -63.671875 Z M 40.40625 -60.90625 L 40.328125 -62.421875 L 41.84375 -62.515625 L 41.921875 -61 Z M 34.578125 -60.734375 L 34.5 -61.921875 L 35.65625 -62 L 35.734375 -60.8125 Z M 109.0625 -64.171875 L 108.9375 -66.296875 L 111.140625 -66.421875 L 111.265625 -64.296875 Z M 37.78125 -57.875 L 37.71875 -59.046875 L 38.8125 -59.109375 L 38.875 -57.9375 Z M 112.203125 -61.3125 L 112.078125 -63.5 L 114.265625 -63.625 L 114.390625 -61.4375 Z M 31.859375 -57.6875 L 31.8125 -58.515625 L 32.65625 -58.5625 L 32.703125 -57.734375 Z M 40.9375 -55.09375 L 40.875 -56.1875 L 42.0625 -56.265625 L 42.125 -55.171875 Z M 115.34375 -58.4375 L 115.21875 -60.640625 L 117.328125 -60.765625 L 117.453125 -58.5625 Z M 35.078125 -54.828125 L 35.03125 -55.765625 L 35.875 -55.8125 L 35.921875 -54.875 Z M 109.578125 -58.265625 L 109.46875 -60.125 L 111.328125 -60.234375 L 111.4375 -58.375 Z M 118.484375 -55.65625 L 118.359375 -57.78125 L 120.5625 -57.90625 L 120.6875 -55.78125 Z M 38.21875 -52.03125 L 38.171875 -52.875 L 39.015625 -52.921875 L 39.0625 -52.078125 Z M 112.734375 -55.484375 L 112.625 -57.265625 L 114.46875 -57.375 L 114.578125 -55.59375 Z M 121.71875 -52.796875 L 121.59375 -55 L 123.78125 -55.140625 L 123.90625 -52.9375 Z M 115.859375 -52.625 L 115.75 -54.484375 L 117.53125 -54.59375 L 117.640625 -52.734375 Z M 110.015625 -52.453125 L 109.921875 -53.96875 L 111.453125 -54.046875 L 111.546875 -52.53125 Z M 119 -49.75 L 118.890625 -51.609375 L 120.765625 -51.734375 L 120.875 -49.875 Z M 113.25 -49.5625 L 113.171875 -51.09375 L 114.671875 -51.1875 L 114.75 -49.65625 Z M 122.234375 -46.96875 L 122.125 -48.828125 L 123.96875 -48.9375 L 124.078125 -47.078125 Z M 116.375 -46.796875 L 116.28125 -48.3125 L 117.734375 -48.390625 L 117.828125 -46.875 Z M 110.453125 -46.59375 L 110.390625 -47.78125 L 111.578125 -47.859375 L 111.640625 -46.671875 Z M 119.515625 -43.921875 L 119.4375 -45.453125 L 120.96875 -45.546875 L 121.046875 -44.015625 Z M 113.6875 -43.75 L 113.609375 -44.9375 L 114.78125 -45 L 114.859375 -43.8125 Z M 122.765625 -41.0625 L 122.671875 -42.59375 L 124.171875 -42.6875 L 124.265625 -41.15625 Z M 116.8125 -40.875 L 116.75 -42.0625 L 118.015625 -42.140625 L 118.078125 -40.953125 Z M 110.984375 -40.703125 L 110.9375 -41.546875 L 111.78125 -41.59375 L 111.828125 -40.75 Z M 120.046875 -38.09375 L 119.96875 -39.28125 L 121.15625 -39.34375 L 121.234375 -38.15625 Z M 114.203125 -37.90625 L 114.15625 -38.75 L 115 -38.8125 L 115.046875 -37.96875 Z M 123.28125 -35.234375 L 123.203125 -36.421875 L 124.375 -36.5 L 124.453125 -35.3125 Z M 117.34375 -35.0625 L 117.296875 -35.90625 L 118.21875 -35.953125 L 118.265625 -35.109375 Z M 120.578125 -32.171875 L 120.515625 -33.03125 L 121.359375 -33.09375 L 121.421875 -32.234375 Z M 123.796875 -29.40625 L 123.75 -30.25 L 124.578125 -30.296875 L 124.625 -29.453125 Z M 108.984375 -11.453125 L 110.34375 -11.546875 L 110.296875 -12.296875 Z M 110.9375 -8.6875 L 113.484375 -8.84375 L 113.328125 -11.375 L 110.78125 -11.21875 Z M 105.1875 -8.4375 L 107.484375 -8.578125 L 107.359375 -10.515625 L 105.125 -9.359375 Z M 114 -5.890625 L 116.546875 -6.046875 L 116.390625 -8.59375 L 113.84375 -8.4375 Z M 108.25 -5.640625 L 110.59375 -5.78125 L 110.453125 -8.15625 L 108.109375 -8.015625 Z M 102.484375 -5.375 L 104.59375 -5.59375 L 104.46875 -7.625 L 102.4375 -7.5 Z M 96.796875 -5.203125 L 98.671875 -5.3125 L 98.609375 -6.5 L 96.765625 -5.796875 Z M 117.140625 -3.203125 L 119.671875 -3.34375 L 119.515625 -5.890625 L 116.984375 -5.75 Z M 111.359375 -2.921875 L 113.65625 -3.0625 L 113.53125 -5.359375 L 111.234375 -5.21875 Z M 105.625 -2.671875 L 107.734375 -2.8125 L 107.609375 -4.921875 L 105.5 -4.78125 Z M 99.859375 -2.40625 L 101.71875 -2.515625 L 101.59375 -4.390625 L 99.734375 -4.28125 Z M 94.09375 -2.15625 L 95.78125 -2.265625 L 95.6875 -3.953125 L 94 -3.84375 Z M 88.34375 -1.890625 L 89.78125 -1.984375 L 89.6875 -3.421875 L 89.015625 -3.375 L 88.265625 -3.15625 Z M 82.671875 -1.625 L 83.859375 -1.703125 L 83.828125 -2.046875 L 82.65625 -1.796875 Z M 120.1875 -0.421875 L 122.71875 -0.5625 L 122.5625 -3.09375 L 120.03125 -2.953125 Z M 114.4375 -0.171875 L 116.8125 -0.3125 L 116.671875 -2.65625 L 114.296875 -2.515625 Z M 108.671875 0.109375 L 110.78125 -0.109375 L 110.65625 -2.15625 L 108.609375 -2.03125 Z M 103 0.265625 L 104.859375 0.15625 L 104.75 -1.703125 L 102.890625 -1.59375 Z M 97.234375 0.53125 L 98.84375 0.4375 L 98.75 -1.171875 L 97.140625 -1.078125 Z M 91.46875 0.78125 L 92.90625 0.703125 L 92.8125 -0.734375 L 91.375 -0.65625 Z M 85.71875 1.0625 L 86.90625 0.984375 L 86.828125 -0.203125 L 85.640625 -0.125 Z M 79.953125 1.3125 L 80.984375 1.25 L 80.921875 0.234375 L 79.890625 0.296875 Z M 74.203125 1.578125 L 74.953125 1.453125 L 74.90625 0.765625 L 74.15625 0.8125 Z M 123.3125 2.28125 L 124.921875 2.1875 L 125.828125 1.703125 L 125.703125 -0.40625 L 123.15625 -0.25 Z M 117.5625 2.546875 L 119.84375 2.40625 L 119.703125 0.109375 L 117.421875 0.25 Z M 111.796875 2.796875 L 113.90625 2.671875 L 113.78125 0.5625 L 111.671875 0.6875 Z M 106.046875 3.0625 L 107.90625 2.953125 L 107.796875 1.09375 L 105.9375 1.203125 Z M 100.28125 3.328125 L 101.984375 3.234375 L 101.875 1.53125 L 100.171875 1.625 Z M 94.515625 3.578125 L 95.96875 3.5 L 95.890625 2.0625 L 94.4375 2.140625 Z M 88.859375 3.75 L 90.046875 3.6875 L 89.96875 2.5 L 88.78125 2.5625 Z M 83.078125 4.015625 L 84.015625 3.96875 L 83.96875 3.03125 L 83.03125 3.078125 Z M 77.328125 4.265625 L 78.09375 4.21875 L 78.046875 3.46875 L 77.28125 3.515625 Z M 120.546875 4.234375 L 122.859375 3.171875 L 122.84375 2.828125 L 120.46875 2.96875 Z M 114.859375 5.59375 L 116.96875 5.390625 L 116.859375 3.359375 L 114.828125 3.484375 Z M 109.171875 5.765625 L 111.03125 5.65625 L 110.921875 3.796875 L 109.0625 3.90625 Z M 103.421875 6.03125 L 105.03125 5.9375 L 104.9375 4.328125 L 103.328125 4.421875 Z M 97.65625 6.296875 L 99.09375 6.21875 L 99.015625 4.765625 L 97.578125 4.84375 Z M 91.890625 6.546875 L 93.078125 6.484375 L 93.015625 5.296875 L 91.828125 5.359375 Z M 86.15625 6.8125 L 87.171875 6.75 L 87.109375 5.734375 L 86.09375 5.796875 Z M 80.390625 6.984375 L 81.15625 6.9375 L 81.109375 6.171875 L 80.34375 6.21875 Z M 112.140625 7.1875 L 113.984375 6.578125 L 112.109375 6.6875 Z M 106.46875 8.8125 L 108.15625 8.359375 L 108.078125 7 L 106.375 7.109375 Z M 100.71875 9.0625 L 102.15625 8.96875 L 102.0625 7.53125 L 100.625 7.625 Z M 95.03125 9.25 L 96.21875 9.171875 L 96.15625 7.984375 L 94.96875 8.0625 Z M 89.28125 9.5 L 90.21875 9.4375 L 90.15625 8.5 L 89.21875 8.5625 Z M 83.515625 9.765625 L 84.265625 9.71875 L 84.234375 8.953125 L 83.484375 9 Z M 92.296875 11.625 L 93.296875 11.46875 L 93.28125 11.125 L 92.265625 11.1875 Z M 86.5625 12.21875 L 87.328125 12.171875 L 87.296875 11.65625 L 86.53125 11.703125 Z M 86.5625 12.21875 "/></g></g></g></svg>